<?xml version="1.0" encoding="utf-8"?>
<!-- Generator: Adobe Illustrator 19.1.0, SVG Export Plug-In . SVG Version: 6.00 Build 0)  -->
<svg version="1.1" id="Layer_1" xmlns:sketch="http://www.bohemiancoding.com/sketch/ns"
	 xmlns="http://www.w3.org/2000/svg" xmlns:xlink="http://www.w3.org/1999/xlink" x="0px" y="0px" viewBox="-583 41 32 32"
	 style="enable-background:new -583 41 32 32;" xml:space="preserve">
<style type="text/css">
	.st0{fill:#169CEE;}
</style>
<title>facebook</title>
<desc>Created with Sketch.</desc>
<g id="Page-1" sketch:type="MSPage">
	<g id="facebook" sketch:type="MSArtboardGroup">
		<path sketch:type="MSShapeGroup" class="st0" d="M-575.8,47h18.7c0.3,0,0.6,0.1,0.8,0.3c0.2,0.2,0.3,0.5,0.3,0.8v17.8
			c0,0.3-0.1,0.6-0.3,0.8c-0.2,0.2-0.5,0.3-0.8,0.3h-5.4v-7.7h2.7l0.4-3h-3.1v-1.9c0-0.5,0.1-0.9,0.3-1.1c0.2-0.3,0.6-0.4,1.2-0.4
			h1.7v-2.7c-0.5-0.1-1.3-0.1-2.5-0.1s-2.2,0.3-2.9,1c-0.7,0.7-1.1,1.7-1.1,2.9v2.2h-2.7v3h2.7V67h-10.1c-0.3,0-0.6-0.1-0.8-0.3
			c-0.2-0.2-0.4-0.5-0.4-0.8V48.1c0-0.3,0.1-0.6,0.4-0.8C-576.4,47.1-576.1,47-575.8,47"/>
	</g>
</g>
</svg>
