<?xml version="1.0" encoding="utf-8"?>
<!-- Generator: Adobe Illustrator 19.1.0, SVG Export Plug-In . SVG Version: 6.00 Build 0)  -->
<svg version="1.1" id="Layer_1" xmlns:sketch="http://www.bohemiancoding.com/sketch/ns"
	 xmlns="http://www.w3.org/2000/svg" xmlns:xlink="http://www.w3.org/1999/xlink" x="0px" y="0px" viewBox="-567 25 64 64"
	 style="enable-background:new -567 25 64 64;" xml:space="preserve">
<style type="text/css">
	.st0{fill:#FFFFFF;}
	.st1{fill:#169CEE;}
</style>
<circle class="st0" cx="-534.5" cy="56.8" r="28.8"/>
<title>favicon</title>
<desc>Created with Sketch.</desc>
<g id="Page-1" sketch:type="MSPage">
	<g id="favicon" sketch:type="MSArtboardGroup">
		<path id="logo" sketch:type="MSShapeGroup" class="st1" d="M-535,25c-17.7,0-32,14.3-32,32s14.3,32,32,32s32-14.3,32-32
			S-517.3,25-535,25z M-529.3,65.3h-16.8c-1.7,0-3,1.3-3,3c0,1.7,1.3,3,3,3c1.7,0,3-1.3,3-3v-0.2h4.5v0.2c0,4.2-3.4,7.5-7.5,7.5
			c-4.2,0-7.5-3.4-7.5-7.5c0-4.2,3.4-7.5,7.5-7.5h16.8c5.1,0,9.3-4.1,9.3-9.3c0-5.1-4.2-9.2-9.3-9.2c-5.1,0-9.3,4.2-9.3,9.3v6.6
			h-4.6v-6.6c0-7.6,6.2-13.9,13.8-13.9c7.6,0,13.8,6.2,13.8,13.8S-521.6,65.3-529.3,65.3z"/>
	</g>
</g>
</svg>
