<?xml version="1.0" encoding="utf-8"?>
<!-- Generator: Adobe Illustrator 19.1.0, SVG Export Plug-In . SVG Version: 6.00 Build 0)  -->
<svg version="1.1" id="Layer_1" xmlns:sketch="http://www.bohemiancoding.com/sketch/ns"
	 xmlns="http://www.w3.org/2000/svg" xmlns:xlink="http://www.w3.org/1999/xlink" x="0px" y="0px" viewBox="-464 -79 680 240"
	 style="enable-background:new -464 -79 680 240;" xml:space="preserve">
<style type="text/css">
	.st0{fill:#FFFFFF;}
	.st1{fill:#169CEE;}
</style>
<circle class="st0" cx="-344" cy="41.9" r="107.4"/>
<title>logo</title>
<desc>Created with Sketch.</desc>
<path class="st1" d="M184.5,92.8V77c-7.7,4.2-16.2,5.9-23.5,5.9c-14.9,0-25.2-7.5-25.9-24.6H188c0.7-4.6,0.9-9.4,0.9-13.2
	c0-19.1-11.2-33.6-31.2-33.8c-24.4-0.2-39.7,17.6-39.7,45v0.4c0,25.9,16.7,41.2,41.5,41.2C167.8,97.8,177.2,96.3,184.5,92.8
	 M157.1,25c10.7,0,16,7.5,16,19.1v0.9h-36.9C138.6,32,145.9,25,157.1,25 M76.3,60.5l1.8,0.7c12.1,4.4,14.9,7,14.9,12.5
	c0,6.4-4.8,9.9-14.9,9.9c-8.1,0-17.6-2.6-27.2-7.2V93c8.1,3.1,18,4.8,26.5,4.8c21.3,0,32.2-10.1,32.2-24.4
	c0-12.5-5.9-20.2-23.5-26.5l-1.8-0.7c-13.4-4.8-16-7.5-16-12.3c0-5.3,4.4-9.2,14-9.2c7.5,0,15.1,2.6,23.3,6.4V15.6
	c-7-2.6-14.5-4.4-22.8-4.4C64,11.2,52.2,21.5,52.2,36C52.2,47.6,58.1,53.9,76.3,60.5 M13.1,39.7c5.3-8.1,12.9-12.5,22.2-12.5
	c3.1,0,6.6,0.4,9.2,1.3V13.6c-2.6-0.9-5.9-1.5-9.2-1.5c-9.7,0-16.9,4.2-23.5,12.7L11,13.1H-3.3v83.1h16.2V39.7H13.1z M-33.1,96.3
	h14.3V40.3c0-19.7-9.9-29.2-30.5-29.2c-9.9,0-20.2,3.1-27.9,7.2v16c9.2-5.5,19.1-8.8,27-8.8c11,0,15.4,4.8,15.4,13.6v6.6
	c-22.6,0.9-36.2,4.6-43.2,11.6c-5,4.8-7.5,11.6-7.5,18.4c0,14.3,10.5,22.4,24.8,22.4c9.2,0,18.4-3.7,26.5-11.4L-33.1,96.3z
	 M-57.3,84.4c-7,0-11.8-3.7-11.8-9.9c0-9.7,8.1-15.1,34.2-16V73C-41,79.8-48.3,84.4-57.3,84.4 M-150.3,45.4V2.6h21.3
	c14.5,0,22.8,6.8,22.8,21.1v0.2c0,14.5-8.3,21.3-22.8,21.3h-21.3V45.4z M-167.4,96.3h17.1V60.7h20c25.7,0,40.8-13.6,40.8-36.6v-0.2
	c0-22.8-15.4-36.4-40.8-36.4h-37.1V96.3z M-324,70.2h-59c-8.6,0-13.6,5.3-13.6,12.9c0,6.8,4.6,11.6,11.2,11.6
	c7.7,0,12.1-5.3,12.5-12.9h17.1c-0.9,18.6-12.5,28.5-29.8,28.5c-16.2,0-28.3-11-28.3-27.4c0-17.1,12.7-29,31.8-29h58.4
	c19.7,0,34.7-14.5,34.7-34c0-19.7-13.4-33.6-32.5-33.6c-18.9,0-34.2,13.8-34.2,39.3v16.7h-17.3V25.6c0-33.8,21.7-55.7,51.8-55.7
	c28.7,0,49.6,20.6,49.6,49.8C-271.4,48.9-293.8,70.2-324,70.2 M-344,161c67.1,0,120-53.1,120-120S-276.9-79-344-79S-464-25.7-464,41
	C-464,107.9-411.1,161-344,161"/>
</svg>
