<?xml version="1.0" encoding="utf-8"?>
<!-- Generator: Adobe Illustrator 19.1.0, SVG Export Plug-In . SVG Version: 6.00 Build 0)  -->
<svg version="1.1" id="Layer_1" xmlns:sketch="http://www.bohemiancoding.com/sketch/ns"
	 xmlns="http://www.w3.org/2000/svg" xmlns:xlink="http://www.w3.org/1999/xlink" x="0px" y="0px" viewBox="-583 41 32 32"
	 style="enable-background:new -583 41 32 32;" xml:space="preserve">
<style type="text/css">
	.st0{fill:#169CEE;}
</style>
<title>overflow</title>
<desc>Created with Sketch.</desc>
<g id="Page-1" sketch:type="MSPage">
	<g id="overflow" sketch:type="MSArtboardGroup">
		<path id="stackoverflow" sketch:type="MSShapeGroup" class="st0" d="M-564.1,64.3l-9.1,0l0-1.7l9.1,0L-564.1,64.3z M-559.9,55.1
			l-1.5-7.8l1.9-0.3l1.5,7.8L-559.9,55.1z M-564.1,62.2l-9-0.7l0.2-1.7l9,0.7L-564.1,62.2z M-563.8,59.9l-8.7-2l0.5-1.6l8.7,2
			L-563.8,59.9z M-563.1,57.8l-7.8-4l1-1.5l7.8,4L-563.1,57.8z M-561.8,56.1l-5.1-6.5l1.6-0.9l5.1,6.5L-561.8,56.1z M-562.6,58.8
			v6.9h-11.9v-6.9h-1.5V67h0c0,0,0.5,0,0.5,0h14.5v0c0,0,0-0.4,0-0.4v-7.8H-562.6z"/>
	</g>
</g>
</svg>
