<?xml version="1.0" encoding="utf-8"?>
<!-- Generator: Adobe Illustrator 19.1.0, SVG Export Plug-In . SVG Version: 6.00 Build 0)  -->
<svg version="1.1" id="Layer_1" xmlns:sketch="http://www.bohemiancoding.com/sketch/ns"
	 xmlns="http://www.w3.org/2000/svg" xmlns:xlink="http://www.w3.org/1999/xlink" x="0px" y="0px" viewBox="-575 33 48 48"
	 style="enable-background:new -575 33 48 48;" xml:space="preserve">
<style type="text/css">
	.st0{fill:#66637A;}
</style>
<title>repos</title>
<desc>Created with Sketch.</desc>
<g id="Page-1" sketch:type="MSPage">
	<g id="repos" sketch:type="MSArtboardGroup">
		<path id="Shape" sketch:type="MSShapeGroup" class="st0" d="M-556.5,61.8h-2.8V59h2.8V61.8L-556.5,61.8z M-556.5,53.5h-2.8v2.8
			h2.8V53.5L-556.5,53.5z M-556.5,48h-2.8v2.8h2.8V48L-556.5,48z M-556.5,42.5h-2.8v2.8h2.8V42.5L-556.5,42.5z M-534.5,39.8v33
			c0,1.5-1.2,2.8-2.8,2.8h-13.8V81l-4.1-4.1l-4.1,4.1v-5.5h-5.5c-1.5,0-2.8-1.2-2.8-2.8v-33c0-1.5,1.2-2.8,2.8-2.8h27.5
			C-535.7,37-534.5,38.2-534.5,39.8L-534.5,39.8z M-537.3,67.2h-27.5v5.5h5.5V70h8.2v2.8h13.8V67.2L-537.3,67.2z M-537.3,39.8h-24.8
			v24.8h24.8V39.8L-537.3,39.8z"/>
	</g>
</g>
</svg>
