<?xml version="1.0" encoding="utf-8"?>
<!-- Generator: Adobe Illustrator 19.1.0, SVG Export Plug-In . SVG Version: 6.00 Build 0)  -->
<svg version="1.1" id="Layer_1" xmlns="http://www.w3.org/2000/svg" xmlns:xlink="http://www.w3.org/1999/xlink" x="0px" y="0px"
	 viewBox="0 0 32 32" style="enable-background:new 0 0 32 32;" xml:space="preserve">
<style type="text/css">
	.st0{clip-path:url(#SVGID_2_);}
	.st1{clip-path:url(#SVGID_4_);fill:#11A4BA;}
</style>
<g>
	<defs>
		<path id="SVGID_1_" d="M25.9,16.1c0-0.3-0.4-1.6-1-3.8l-0.8-2.9C24,9.1,23.9,9,23.7,9.3c-1.2,2.2-2,3.6-2.4,4.2
			c-0.4,0.7-0.7,1.2-0.9,1.7C20.1,15.6,20,15.9,20,16c0,0.1,0.1,0.3,0.2,0.6l2.5,4.3c0.1,0.3,0.3,0.6,0.6,1.1
			c0.3,0.5,0.4,0.7,0.5,0.9l0.2,0.1l0.1-0.2l0.7-2.5C25.5,17.8,25.9,16.4,25.9,16.1z M10.1,17.5l-0.3,0c-0.1,0-0.1,0.1,0,0.3
			c2.9,3,4.4,4.5,4.4,4.6c0,0.1,0.1,0.1,0.3,0.1c1.4,0.4,3.6,0.9,6.5,1.7l0.2,0l-0.1-0.2c-0.2-0.3-0.4-0.7-0.8-1.3
			c-0.4-0.6-0.6-1.1-0.8-1.3L17.7,18c-0.2-0.3-0.5-0.5-0.9-0.5c0,0-0.5,0-1.6,0l-1.7,0H10.1z M17.3,14.4c0.2,0,0.3-0.1,0.4-0.3
			l3.6-6.3l0.1-0.2l-0.2,0L19,8.1c-0.4,0.1-1.1,0.3-2,0.5c-0.9,0.2-1.5,0.4-2,0.5c-0.4,0.1-0.8,0.3-1,0.5c-0.9,1-1.9,2-2.9,3
			c-1,1-1.5,1.6-1.5,1.7l0.3,0.1H17.3z M11.4,8.2H12l1.6,0.1c0.1,0,0.3-0.1,0.4-0.2c0.1-0.1,0.2-0.4,0.4-0.7
			c0.1-0.3,0.3-0.6,0.5-0.9C15,6.3,15.2,6,15.5,5.7l0.2-0.1L25.2,3c0.2,0,0.3,0,0.4,0.1l0.1,0.3c0,0.1,0.1,0.4,0.2,0.7
			c0.1,0.3,0.2,0.7,0.3,1.2c0.1,0.5,0.2,0.8,0.2,1c0,0.2,0.1,0.4,0.1,0.5c0,0.1,0.1,0.4,0.2,0.8c0.1,0.4,0.2,0.8,0.3,1l0.3,1.3
			c0.2,0.7,0.3,1.2,0.4,1.6c0.1,0.4,0.2,0.7,0.2,0.9c0.2,0.7,0.2,1.3-0.1,1.8c-0.2,0.3-0.4,0.8-0.8,1.4C27,16,27.1,16.5,27.4,17
			c0.1,0.1,0.2,0.3,0.3,0.6c0.4,0.6,0.6,1.1,0.6,1.4c0,0.3-0.2,1.2-0.6,2.7c-0.4,1.5-0.6,2.4-0.8,2.9c-0.1,0.5-0.3,1-0.4,1.5
			c-0.1,0.5-0.3,0.9-0.4,1.4c-0.1,0.4-0.2,0.7-0.2,0.9c-0.2,0.6-0.6,0.9-1.3,0.7c-1.3-0.3-2.2-0.5-2.6-0.7c-0.5-0.1-1-0.3-1.5-0.4
			c-0.6-0.1-1.1-0.3-1.7-0.5c-0.6-0.2-1.4-0.4-2.3-0.6c-0.9-0.2-1.5-0.7-1.8-1.4c-0.1-0.1-0.2-0.4-0.5-0.8c-0.3-0.4-0.6-0.6-1.1-0.7
			c-0.5,0-0.9,0-1.5,0c-0.5,0-0.9-0.1-1.2-0.4c-1.7-1.7-3.8-3.8-6.5-6.5c-0.4-0.4-0.4-0.9,0-1.4c1-1,1.8-1.8,2.5-2.5
			c0.6-0.6,1.1-1.1,1.4-1.4l0.9-0.9c0.3-0.3,0.6-0.6,0.8-0.8l1.4-1.4C11,8.3,11.2,8.2,11.4,8.2z"/>
	</defs>
	<clipPath id="SVGID_2_">
		<use xlink:href="#SVGID_1_"  style="overflow:visible;"/>
	</clipPath>
	<g class="st0">
		<defs>
			<rect id="SVGID_3_" x="3.7" y="2.9" width="24.7" height="26.2"/>
		</defs>
		<clipPath id="SVGID_4_">
			<use xlink:href="#SVGID_3_"  style="overflow:visible;"/>
		</clipPath>
		<rect x="2.7" y="2" class="st1" width="26.6" height="27.9"/>
	</g>
</g>
</svg>
