<?xml version="1.0" encoding="utf-8"?>
<!-- Generator: Adobe Illustrator 19.1.0, SVG Export Plug-In . SVG Version: 6.00 Build 0)  -->
<svg version="1.1" id="Layer_1" xmlns="http://www.w3.org/2000/svg" xmlns:xlink="http://www.w3.org/1999/xlink" x="0px" y="0px"
	 viewBox="-239 -1224 720 1920" style="enable-background:new -239 -1224 720 1920;" xml:space="preserve">
<style type="text/css">
	.st0{fill:none;stroke:#3A3A59;stroke-width:16;stroke-linecap:round;stroke-miterlimit:10;}
	.st1{fill:none;stroke:#0E69A1;stroke-width:8;stroke-miterlimit:10;}
	.st2{fill:#3A3A59;}
	.st3{fill:#159CEE;}
</style>
<line class="st0" x1="-155.2" y1="517.1" x2="-155.2" y2="497.1"/>
<line class="st1" x1="-155.2" y1="449.8" x2="-155.2" y2="-1224"/>
<line class="st1" x1="-155.2" y1="458" x2="-155.2" y2="498.6"/>
<path class="st2" d="M-139.9,451.5l-10.9,18.8c-2,3.4-6.9,3.4-8.9,0l-10.8-18.8c-2-3.4,0.5-7.7,4.4-7.7h21.8
	C-140.4,443.8-138,448.1-139.9,451.5z"/>
<path class="st2" d="M-146.1,490.4h-18.3c-2.2,0-4,1.8-4,4v8.4c0,2.2,1.8,4,4,4h18.3c2.2,0,4-1.8,4-4v-8.4
	C-142.1,492.2-143.9,490.4-146.1,490.4z"/>
<circle class="st3" cx="-155.2" cy="466.6" r="2.8"/>
<circle class="st3" cx="-163.5" cy="450.1" r="2.8"/>
<circle class="st3" cx="-147" cy="450.1" r="2.8"/>
</svg>
