<?xml version="1.0" encoding="utf-8"?>
<!-- Generator: Adobe Illustrator 19.1.0, SVG Export Plug-In . SVG Version: 6.00 Build 0)  -->
<svg version="1.1" id="Layer_1" xmlns="http://www.w3.org/2000/svg" xmlns:xlink="http://www.w3.org/1999/xlink" x="0px" y="0px"
	 viewBox="-188.7 497.7 112 109.1" style="enable-background:new -188.7 497.7 112 109.1;" xml:space="preserve">
<style type="text/css">
	.st0{fill:#4BBC6E;}
</style>
<g id="pushOne">
	<g>
		<path class="st0" d="M-103,558.6c-19.1,0-34.6-15.5-34.6-34.6c0-3.4,0.5-6.8,1.5-9.9h-33.8c-10.4,0-18.8,8.4-18.8,18.8V588
			c0,10.4,8.4,18.8,18.8,18.8h55.1c10.4,0,18.8-8.4,18.8-18.8v-30.1C-98.3,558.3-100.6,558.6-103,558.6z"/>
	</g>
	<path class="st0" d="M-103,497.7c-14.5,0-26.3,11.8-26.3,26.3c0,14.5,11.8,26.3,26.3,26.3s26.3-11.8,26.3-26.3
		S-88.5,497.7-103,497.7z M-103,538c-7.7,0-14-6.3-14-14s6.3-14,14-14s14,6.3,14,14S-95.3,538-103,538z"/>
</g>
</svg>
