<?xml version="1.0" encoding="utf-8"?>
<!-- Generator: Adobe Illustrator 19.1.0, SVG Export Plug-In . SVG Version: 6.00 Build 0)  -->
<svg version="1.1" id="Layer_1" xmlns="http://www.w3.org/2000/svg" xmlns:xlink="http://www.w3.org/1999/xlink" x="0px" y="0px"
	 viewBox="-111 -584 976 1280" style="enable-background:new -111 -584 976 1280;" xml:space="preserve">
<style type="text/css">
	.st0{fill:none;stroke:#3A3A59;stroke-width:12;stroke-miterlimit:10;}
	.st1{fill:#3A3A59;}
	.st2{fill:#0E69A1;}
	.st3{fill:#169CEE;}
	.st4{fill:#F15732;}
	.st5{fill:#FFFFFF;}
	.st6{fill:#555574;}
	.st7{fill:#4BBC6E;}
	.st8{fill:#EF3F61;}
	.st9{fill:none;stroke:#3A3A59;stroke-width:16;stroke-linecap:round;stroke-miterlimit:10;}
	.st10{fill:none;stroke:#0E69A1;stroke-width:8;stroke-miterlimit:10;}
	.st11{fill:#159CEE;}
	.st12{clip-path:url(#SVGID_2_);}
	.st13{fill:none;stroke:#169CEE;stroke-width:8;stroke-miterlimit:10;}
	.st14{fill:none;stroke:#3A3A59;stroke-width:8;stroke-linecap:round;stroke-linejoin:round;stroke-miterlimit:10;}
	.st15{fill:none;stroke:#3A3A59;stroke-width:8;stroke-linecap:round;stroke-miterlimit:10;}
	.st16{opacity:0.3;fill:#FFFFFF;enable-background:new    ;}
	.st17{fill:none;stroke:#0E69A1;stroke-width:8;stroke-linecap:round;stroke-miterlimit:10;}
	.st18{fill:none;stroke:#3A3A59;stroke-width:8;stroke-miterlimit:10;}
</style>
<g id="right">
	<g id="scaffold">
		<line class="st0" x1="119.3" y1="697.4" x2="-32.3" y2="604.6"/>
		<line class="st0" x1="-32.3" y1="697.4" x2="119.3" y2="604.6"/>
		<line class="st0" x1="119.3" y1="576.2" x2="-32.3" y2="483.4"/>
		<line class="st0" x1="-32.3" y1="576.2" x2="119.3" y2="483.4"/>
		<rect x="119.3" y="455.1" class="st1" width="8.8" height="242"/>
		<rect x="-41.1" y="455.1" class="st1" width="8.8" height="242"/>
		<rect x="115.9" y="669.7" class="st2" width="15.6" height="27.7"/>
		<rect x="-44.5" y="669.7" class="st2" width="15.6" height="27.7"/>
		<rect x="-41.1" y="595" class="st2" width="169.2" height="9.6"/>
		<rect x="-52.3" y="576.2" class="st3" width="191.5" height="19.2"/>
		<rect x="-41.1" y="473.8" class="st2" width="169.2" height="9.6"/>
		<rect x="-52.3" y="455" class="st3" width="191.5" height="19.2"/>
		<g>
			<path class="st4" d="M-53.3,622.7c11.8,7.4,15.7,23,8.7,35.1c-4.3,7.3-11.5,11.8-19.2,12.8c-3.9,0.5-7.3,2.8-9.5,6.1l-3.5,5.5
				l0,0c-3.6,5.6-11.1,7.3-16.7,3.7c-5.6-3.6-7.3-11.1-3.7-16.7l0,0l3.7-5.8c2.1-3.3,2.6-7.4,1.4-11.1c-2.1-7-1.3-14.9,3-21.6
				C-81.3,618.7-65.4,615.2-53.3,622.7z"/>
			<circle class="st5" cx="-71.6" cy="629.8" r="6.7"/>
			
				<rect x="-104" y="674.4" transform="matrix(-0.8421 -0.5394 0.5394 -0.8421 -537.6954 1209.2786)" class="st6" width="24.4" height="18"/>
		</g>
	</g>
	<g id="phone2">
		<g>
			<path class="st1" d="M291.8,696H106.3c-17.7,0-32-14.3-32-32V248c0-17.7,14.3-32,32-32h185.5c17.7,0,32,14.3,32,32v416
				C323.8,681.7,309.5,696,291.8,696z"/>
			<path class="st7" d="M223.6,675.7h-49c-5,0-9.2-4.1-9.2-9.2v-6.1c0-5,4.1-9.2,9.2-9.2h49c5,0,9.2,4.1,9.2,9.2v6.1
				C232.8,671.6,228.6,675.7,223.6,675.7z"/>
		</g>
	</g>
	<rect id="phone2Screen" x="87.3" y="256.1" class="st6" width="223.5" height="378.6"/>
	<g id="push2">
		<g>
			<path class="st7" d="M228.8,451.8c-19.1,0-34.6-15.5-34.6-34.6c0-3.4,0.5-6.8,1.5-9.9H162c-10.4,0-18.8,8.4-18.8,18.8v55.1
				c0,10.4,8.4,18.8,18.8,18.8h55c10.4,0,18.8-8.4,18.8-18.8V451C233.5,451.5,231.2,451.8,228.8,451.8z"/>
		</g>
		<path class="st7" d="M228.8,390.9c-14.5,0-26.3,11.8-26.3,26.3s11.8,26.3,26.3,26.3s26.3-11.8,26.3-26.3
			C255.1,402.7,243.3,390.9,228.8,390.9z M228.8,431.2c-7.7,0-14-6.3-14-14s6.3-14,14-14s14,6.3,14,14S236.5,431.2,228.8,431.2z"/>
	</g>
	<g id="phone3">
		<g>
			<path class="st8" d="M471.6,696H263.3c-2.1,0-3.8-1.7-3.8-3.8V299.8c0-2.1,1.7-3.8,3.8-3.8h208.3c2.1,0,3.8,1.7,3.8,3.8v392.4
				C475.4,694.3,473.7,696,471.6,696z"/>
			<circle class="st1" cx="367.4" cy="662.7" r="20.1"/>
		</g>
	</g>
	<rect id="phone3Screen" x="259.5" y="339" class="st1" width="215.9" height="289.9"/>
	<g id="analytics">
		<path class="st1" d="M367.4,427.6c-30.9,0-56,25.1-56,56s25.1,56,56,56s56-25.1,56-56C423.4,452.8,398.3,427.6,367.4,427.6z
			 M367.4,436.7c25.3,0,45.9,20.1,46.9,45.1h-10.7l-18.2-22.5l-26.2,31.2L340,469.6l-10.8,10.8h-8.7
			C322.3,456,342.7,436.7,367.4,436.7z M367.4,530.6c-24.5,0-44.7-18.9-46.8-43h11.6l7.5-7.5l19.6,21.5l25.8-30.8l14.9,18.4h13.9
			C411.3,512.4,391.5,530.6,367.4,530.6z"/>
	</g>
	<g id="middleLine2">
		<line class="st9" x1="176.9" y1="410.5" x2="176.9" y2="390.5"/>
		<line class="st10" x1="176.9" y1="343.2" x2="176.9" y2="-586"/>
		<line class="st10" x1="176.9" y1="351.4" x2="176.9" y2="392"/>
		<path class="st1" d="M192.2,344.9l-10.9,18.8c-2,3.4-6.9,3.4-8.9,0l-10.9-18.8c-2-3.4,0.5-7.7,4.4-7.7h21.8
			C191.8,337.2,194.2,341.5,192.2,344.9z"/>
		<path class="st1" d="M186.1,383.8h-18.3c-2.2,0-4,1.8-4,4v8.4c0,2.2,1.8,4,4,4h18.3c2.2,0,4-1.8,4-4v-8.4
			C190.1,385.6,188.3,383.8,186.1,383.8z"/>
		<circle class="st11" cx="176.9" cy="360" r="2.8"/>
		<circle class="st11" cx="168.7" cy="343.5" r="2.8"/>
		<circle class="st11" cx="185.2" cy="343.5" r="2.8"/>
	</g>
	<g id="hoistLine">
		<g>
			<defs>
				<rect id="SVGID_1_" x="320.6" y="24.6" width="93.7" height="412.1"/>
			</defs>
			<clipPath id="SVGID_2_">
				<use xlink:href="#SVGID_1_"  style="overflow:visible;"/>
			</clipPath>
			<g class="st12">
				<line class="st13" x1="366.8" y1="24.6" x2="366.8" y2="427.3"/>
				<circle class="st2" cx="367.1" cy="428.3" r="6"/>
			</g>
		</g>
	</g>
	<g id="hoist">
		<rect x="670.5" y="471.2" class="st1" width="136.9" height="67.9"/>
		<polygon class="st14" points="803.6,471.2 673.5,471.2 365.4,24.2 		"/>
		<polygon class="st3" points="819.3,617.1 567.6,617.1 567.6,560.8 642.9,482.2 719,482.2 748,539.1 819.3,539.1 		"/>
		<polygon class="st8" points="686.4,561.1 584.3,561.1 651.3,490.2 685.8,490.2 		"/>
		<polygon class="st8" points="686.5,561.1 584.3,561.1 651.3,490.2 686.5,490.2 		"/>
		<path class="st6" d="M865.3,661.5c0,19-15.4,34.5-34.5,34.5H550.1c-19,0-34.5-15.4-34.5-34.5l0,0c0-19,15.4-34.5,34.5-34.5h280.7
			C849.9,627.1,865.3,642.5,865.3,661.5L865.3,661.5z"/>
		<path class="st1" d="M855.3,661.5c0,13.5-11,24.5-24.5,24.5H550.1c-13.5,0-24.5-11-24.5-24.5l0,0c0-13.5,11-24.5,24.5-24.5h280.7
			C844.3,637.1,855.3,648,855.3,661.5L855.3,661.5z"/>
		<rect x="578.6" y="617.1" class="st1" width="224.8" height="10"/>
		<line class="st15" x1="365.4" y1="24.6" x2="736.5" y2="471.5"/>
		<polygon class="st16" points="652.9,560.8 607.7,560.6 678,490.2 686.5,490.2 686.5,527.3 		"/>
		<rect x="748.4" y="553.1" class="st2" width="53" height="7"/>
		<rect x="748.4" y="573.1" class="st2" width="53" height="7"/>
		<rect x="748.4" y="593.1" class="st2" width="53" height="7"/>
		<rect x="661.5" y="569.1" class="st2" width="17" height="5"/>
		<rect x="661.5" y="574.1" class="st2" width="5" height="5"/>
		<line class="st17" x1="570.6" y1="578.1" x2="567.6" y2="578.1"/>
		<line class="st17" x1="570.6" y1="604.1" x2="567.6" y2="604.1"/>
		<line class="st17" x1="570.6" y1="591.1" x2="567.6" y2="591.1"/>
		<line class="st14" x1="803.6" y1="471.5" x2="608" y2="376.4"/>
		<line class="st14" x1="706" y1="371.6" x2="554.1" y2="298.3"/>
		<line class="st14" x1="633.8" y1="298.3" x2="514.4" y2="240.7"/>
		<line class="st14" x1="574.1" y1="237.4" x2="481.3" y2="192.6"/>
		<line class="st14" x1="529.9" y1="192.6" x2="457" y2="157.4"/>
		<line class="st14" x1="493.5" y1="157.4" x2="438.8" y2="131"/>
		<line class="st14" x1="466.7" y1="127.9" x2="421.6" y2="106.1"/>
		<line class="st14" x1="673.5" y1="471.5" x2="706" y2="372.9"/>
		<line class="st14" x1="608" y1="376.9" x2="633.8" y2="298.3"/>
		<line class="st14" x1="554.1" y1="298.3" x2="574.2" y2="237.4"/>
		<line class="st14" x1="514.4" y1="240.7" x2="530.2" y2="192.6"/>
		<line class="st14" x1="481.3" y1="192.6" x2="493.6" y2="155.2"/>
		<line class="st14" x1="457" y1="157.4" x2="466.7" y2="127.9"/>
		<line class="st14" x1="438.8" y1="131" x2="446.6" y2="107.3"/>
	</g>
	<g id="hoistWheels">
		<g>
			<circle class="st2" cx="690.6" cy="661.4" r="18.5"/>
			<line class="st18" x1="674.6" y1="652.1" x2="706.5" y2="670.6"/>
		</g>
		<g>
			<circle class="st2" cx="620.2" cy="661.4" r="18.5"/>
			<line class="st18" x1="607.2" y1="648.3" x2="633.3" y2="674.4"/>
		</g>
		<g>
			<circle class="st2" cx="549.9" cy="661.4" r="18.5"/>
			<line class="st18" x1="560.5" y1="646.2" x2="539.3" y2="676.5"/>
		</g>
		<g>
			<circle class="st2" cx="760.9" cy="661.4" r="18.5"/>
			<line class="st18" x1="774.6" y1="649" x2="747.2" y2="673.7"/>
		</g>
		<g>
			<circle class="st2" cx="831.2" cy="661.4" r="18.5"/>
			<line class="st18" x1="820.7" y1="646.2" x2="841.8" y2="676.5"/>
		</g>
	</g>
</g>
</svg>
