<svg version="1.1" class="headerCenter" xmlns="http://www.w3.org/2000/svg" xmlns:xlink="http://www.w3.org/1999/xlink" x="0px" y="0px" viewBox="-239 -584 720 1280" style="enable-background:new -239 -584 720 1280;" xml:space="preserve">
	<style>
		.st0{fill:#3A3A59;}
        .st1{fill:#169CEE;}
        .st2{fill:#0E69A1;}
        .st3{fill:#F15732;}
        .st4{opacity:0.3;fill:#FFFFFF;enable-background:new;}
        .st5{fill:#555574;}
        .st6{fill:none;stroke:#0E69A1;stroke-width:8;stroke-linecap:round;stroke-miterlimit:10;}
        .st7{fill:#EF3F61;}
        .st8{fill:#4BBC6E;}
        .st9{fill:none;stroke:#3A3A59;stroke-width:16;stroke-linecap:round;stroke-miterlimit:10;}
        .st10{fill:none;stroke:#0E69A1;stroke-width:8;stroke-miterlimit:10;}
        .st11{fill:#159CEE;}
	</style>
	<g id="truck">
		<g>
			<rect x="-214.8" y="631.2" class="st0" width="149.2" height="33"/>
			<polygon class="st0" points="461.9,664.2 130.8,664.2 130.8,631.2 446.6,631.2 461.8,646.3 			"/>
			<rect x="-230.8" y="607.2" class="st1" width="480" height="24"/>
			<path id="fix_1_" class="st1" d="M400.5,583.8L388.2,533h-27.9c-0.1,0-17.5-34-56.9-34c-4.6,0-9.4,0-9.4,0v34v122.3h106.5v13.5 H472v-79.3L400.5,583.8z"/>
			<rect x="279.3" y="459" class="st0" width="14.6" height="172.2"/>
			<g>
				<circle class="st2" cx="-105.1" cy="665.9" r="30.5"/>
				<circle class="st1" cx="-105.1" cy="665.9" r="16.9"/>
				<g>
					<circle class="st2" cx="-93.2" cy="665.9" r="1.7"/>
					<circle class="st2" cx="-116.9" cy="665.9" r="1.7"/>
					<circle class="st2" cx="-105.1" cy="677.7" r="1.7"/>
					<circle class="st2" cx="-105.1" cy="654" r="1.7"/>
					<circle class="st2" cx="-96.7" cy="657.5" r="1.7"/>
					<circle class="st2" cx="-113.5" cy="674.3" r="1.7"/>
					<circle class="st2" cx="-96.7" cy="674.3" r="1.7"/>
					<circle class="st2" cx="-113.5" cy="657.5" r="1.7"/>
				</g>
			</g>
			<g>
				<circle class="st2" cx="-175.3" cy="665.9" r="30.5"/>
				<circle class="st1" cx="-175.3" cy="665.9" r="16.9"/>
				<g>
					<circle class="st2" cx="-163.5" cy="665.9" r="1.7"/>
					<circle class="st2" cx="-187.2" cy="665.9" r="1.7"/>
					<circle class="st2" cx="-175.3" cy="677.7" r="1.7"/>
					<circle class="st2" cx="-175.3" cy="654" r="1.7"/>
					<circle class="st2" cx="-167" cy="657.5" r="1.7"/>
					<circle class="st2" cx="-183.7" cy="674.3" r="1.7"/>
					<circle class="st2" cx="-167" cy="674.3" r="1.7"/>
					<circle class="st2" cx="-183.7" cy="657.5" r="1.7"/>
				</g>
			</g>
			<g>
				<circle class="st2" cx="239.2" cy="665.9" r="30.5"/>
				<circle class="st1" cx="239.2" cy="665.9" r="16.9"/>
				<g>
					<circle class="st2" cx="251.1" cy="665.9" r="1.7"/>
					<circle class="st2" cx="227.3" cy="665.9" r="1.7"/>
					<circle class="st2" cx="239.2" cy="677.7" r="1.7"/>
					<circle class="st2" cx="239.2" cy="654" r="1.7"/>
					<circle class="st2" cx="247.6" cy="657.5" r="1.7"/>
					<circle class="st2" cx="230.8" cy="674.3" r="1.7"/>
					<circle class="st2" cx="247.6" cy="674.3" r="1.7"/>
					<circle class="st2" cx="230.8" cy="657.5" r="1.7"/>
				</g>
			</g>
			<g>
				<circle class="st2" cx="168.9" cy="665.9" r="30.5"/>
				<circle class="st1" cx="168.9" cy="665.9" r="16.9"/>
				<g>
					<circle class="st2" cx="180.8" cy="665.9" r="1.7"/>
					<circle class="st2" cx="157.1" cy="665.9" r="1.7"/>
					<circle class="st2" cx="168.9" cy="677.7" r="1.7"/>
					<circle class="st2" cx="168.9" cy="654" r="1.7"/>
					<circle class="st2" cx="177.3" cy="657.5" r="1.7"/>
					<circle class="st2" cx="160.5" cy="674.3" r="1.7"/>
					<circle class="st2" cx="177.3" cy="674.3" r="1.7"/>
					<circle class="st2" cx="160.5" cy="657.5" r="1.7"/>
				</g>
			</g>
			<rect x="302.9" y="550.9" class="st2" width="25.2" height="3.6"/>
			<rect x="302.9" y="561.6" class="st2" width="25.2" height="3.6"/>
			<rect x="302.9" y="572.4" class="st2" width="25.2" height="3.6"/>
			<polygon class="st3" points="340.2,583.8 392.5,583.8 382.8,543.8 337.5,543.8 			"/>
			<polygon class="st4" points="340.2,583.8 392.5,583.8 382.8,543.8 380.2,543.8 			"/>
			<rect x="340.2" y="592.8" class="st2" width="14.4" height="3.6"/>
			<rect x="351" y="596.4" class="st2" width="3.6" height="3.6"/>
			<path class="st5" d="M350.6,636.6h-70.3c0,0-4.4,5.5-4.4,15.3c0,8.7,4.4,15.3,4.4,15.3h70.3c0,0,2.2-4.3,2.2-15.3
				C352.7,644.2,350.6,636.6,350.6,636.6z"/>
			<polygon class="st0" points="452.5,669.7 428.8,669.7 396.4,664.2 382,664.2 382.3,646.3 398.3,630.3 436.3,630.3 452.3,646.3 
							"/>
			<g>
				<circle class="st2" cx="417.1" cy="665.9" r="30.5"/>
				<circle class="st1" cx="417.1" cy="665.9" r="16.9"/>
				<g>
					<circle class="st2" cx="429" cy="665.9" r="1.7"/>
					<circle class="st2" cx="405.3" cy="665.9" r="1.7"/>
					<circle class="st2" cx="417.1" cy="677.7" r="1.7"/>
					<circle class="st2" cx="417.1" cy="654" r="1.7"/>
					<circle class="st2" cx="425.5" cy="657.5" r="1.7"/>
					<circle class="st2" cx="408.7" cy="674.3" r="1.7"/>
					<circle class="st2" cx="425.5" cy="674.3" r="1.7"/>
					<circle class="st2" cx="408.7" cy="657.5" r="1.7"/>
				</g>
			</g>
			<path class="st2" d="M475.5,650.8h-8.6v18h8.6c2.2,0,4-1.8,4-4v-10C479.5,652.6,477.7,650.8,475.5,650.8z"/>
			<line class="st6" x1="474.1" y1="598.3" x2="468.1" y2="598.3"/>
			<line class="st6" x1="474.1" y1="612.3" x2="468.1" y2="612.3"/>
			<line class="st6" x1="474.1" y1="625.3" x2="468.1" y2="625.3"/>
		</g>
		<path class="st7" d="M207.3,543l-5.3-12.7l-11.2,3.6c-3.1-4.7-7-8.5-11.6-11.5l3.6-11.3l-12.7-5.3l-5.4,10.6
			c-5.2-1-10.7-1-16.1,0.1l-5.5-10.7l-12.7,5.3l3.7,11.6c-4.5,3.1-8.3,6.9-11.2,11.3l-11.7-3.7l-5.3,12.7l11,5.7
			c-1,5.1-1,10.5,0,15.8l-11,5.7l5.3,12.7l11.8-3.8c3,4.5,6.8,8.3,11.1,11.2l-3.8,11.8l12.7,5.3l5.6-10.9c5.2,1.1,10.6,1.1,15.9,0.1
			l5.6,10.8l12.7-5.3l-3.7-11.5c4.6-3,8.5-6.9,11.5-11.3l11.3,3.6l5.3-12.7l-10.5-5.4c1.1-5.3,1.2-10.8,0-16.3L207.3,543z
			 M162.5,570c-7.5,3.1-16.2-0.5-19.3-8c-3.1-7.5,0.5-16.2,8-19.3c7.5-3.1,16.2,0.5,19.3,8C173.7,558.3,170.1,566.9,162.5,570z"/>
		<g>
			<path class="st5" d="M59.1,550.2c0.1-0.1,0.2-0.3,0.3-0.4c7-10.7,8.4-20.7,4.1-28.2c-4-6.9-12.3-10.6-23.6-10.6
				c-1.1,0-2.2,0-3.3,0.1C31,499.9,23,493,14,493s-17,6.9-22.6,18.1c-1.1-0.1-2.3-0.1-3.3-0.1c-11.3,0-19.6,3.8-23.6,10.6
				c-4.5,7.8-2.5,18.2,4.3,28.6c-6.9,10.4-8.9,20.8-4.3,28.6c4,6.9,12.3,10.6,23.6,10.6c1.1,0,2.2,0,3.3-0.1
				C-3,600.5,5,607.4,14,607.4s17-6.9,22.6-18.1c1.1,0.1,2.3,0.1,3.3,0.1c11.3,0,19.6-3.8,23.6-10.6c4.3-7.5,2.9-17.5-4.1-28.2
				C59.3,550.5,59.2,550.3,59.1,550.2z M39.9,517.9c8.7,0,14.9,2.6,17.6,7.2c2.7,4.7,1.7,11.6-2.8,19.2c-3.2-3.8-7-7.6-11.3-11.1
				c-0.9-5.5-2.2-10.7-3.9-15.4C39.6,517.9,39.7,517.9,39.9,517.9z M25.8,570.8c-3.9,2.3-7.9,4.2-11.9,5.9c-4-1.6-8-3.6-11.9-5.9
				c-4-2.3-7.7-4.8-11.1-7.4c-0.5-4.2-0.8-8.6-0.8-13.3s0.3-9.1,0.8-13.3c3.3-2.6,7-5,11.1-7.4c3.9-2.3,7.9-4.2,11.9-5.9
				c4,1.6,8,3.6,11.9,5.9c4,2.3,7.7,4.8,11.1,7.4c0.5,4.1,0.8,8.6,0.8,13.2s-0.3,9.1-0.8,13.2C33.5,566,29.8,568.6,25.8,570.8z
				 M35.1,573.2c-0.8,3.1-1.7,6-2.8,8.7c-2.9-0.4-5.8-1.1-8.9-1.9c2-1,4-2,5.9-3.2C31.3,575.7,33.2,574.5,35.1,573.2z M4.4,580
				c-3,0.9-6,1.5-8.9,1.9c-1.1-2.6-2-5.5-2.8-8.7c1.9,1.2,3.8,2.4,5.8,3.6S2.5,579,4.4,580z M-16.6,557c-2.3-2.3-4.4-4.5-6.1-6.8
				c1.8-2.2,3.8-4.5,6.1-6.8c-0.1,2.2-0.2,4.5-0.2,6.8S-16.8,554.7-16.6,557z M-7.2,527.1c0.8-3.1,1.7-6,2.8-8.7
				c2.9,0.4,5.8,1.1,8.9,1.9c-2,1-4,2-5.9,3.2C-3.5,524.7-5.4,525.9-7.2,527.1z M23.4,520.4c3-0.9,6-1.5,8.9-1.9
				c1.1,2.7,2,5.6,2.8,8.7c-1.9-1.2-3.8-2.4-5.8-3.6S25.4,521.4,23.4,520.4z M44.5,543.5c2.2,2.2,4.3,4.4,6.1,6.7
				c-1.8,2.3-3.8,4.5-6.1,6.7c0.1-2.2,0.2-4.4,0.2-6.7S44.6,545.7,44.5,543.5z M13.9,499.9c5.3,0,10.9,4.4,15.3,12.1
				c-4.9,0.9-10.1,2.3-15.3,4.3c-5.2-2-10.3-3.4-15.3-4.3C3,504.3,8.6,499.9,13.9,499.9z M-29.6,525c2.7-4.6,8.9-7.2,17.6-7.2
				c0.1,0,0.3,0,0.4,0c-1.7,4.6-3,9.8-3.9,15.3c-4.3,3.5-8.1,7.3-11.3,11C-31.3,536.6-32.3,529.7-29.6,525z M-12.1,582.5
				c-8.7,0-14.9-2.6-17.6-7.2c-2.7-4.6-1.7-11.6,2.8-19.2c3.2,3.8,7,7.5,11.3,11c0.9,5.5,2.2,10.7,3.9,15.3
				C-11.8,582.5-11.9,582.5-12.1,582.5z M13.9,600.5c-5.3,0-10.9-4.4-15.3-12.1c4.9-0.9,10.1-2.3,15.3-4.3c5.2,2,10.3,3.4,15.3,4.3
				C24.8,596.1,19.3,600.5,13.9,600.5z M57.5,575.3c-2.7,4.6-8.9,7.2-17.6,7.2c-0.1,0-0.3,0-0.4,0c1.7-4.7,3-9.8,3.9-15.4
				c4.3-3.5,8.1-7.2,11.3-11.1C59.1,563.7,60.2,570.6,57.5,575.3z"/>
			<circle class="st5" cx="13.9" cy="550.2" r="10.9"/>
		</g>
	</g>
</svg>