<?xml version="1.0" encoding="utf-8"?>
<!-- Generator: Adobe Illustrator 19.1.0, SVG Export Plug-In . SVG Version: 6.00 Build 0)  -->
<svg version="1.1" id="Layer_1" xmlns="http://www.w3.org/2000/svg" xmlns:xlink="http://www.w3.org/1999/xlink" x="0px" y="0px"
	 viewBox="80 358 960.3 565" style="enable-background:new 80 358 960.3 565;" xml:space="preserve">
<style type="text/css">
	.st0{fill:#083857;}
	.st1{fill:#C5C4CF;}
	.st2{fill:#555572;}
	.st3{opacity:0.2;enable-background:new    ;}
	.st4{fill:#FF395E;}
	.st5{fill:#F45530;}
	.st6{fill:#169CEE;}
	.st7{fill:#F2F2F2;}
	.st8{clip-path:url(#SVGID_2_);fill:#169CEE;}
	.st9{clip-path:url(#SVGID_4_);fill:#169CEE;}
	.st10{fill:#FFFFFF;}
	.st11{fill:#00DB7C;}
	.st12{fill:#ADD9B3;}
	.st13{fill:#F7A1A1;}
	.st14{opacity:5.000000e-02;enable-background:new    ;}
	.st15{opacity:0.59;fill:#96C1E8;enable-background:new    ;}
	.st16{fill:#595A5C;}
</style>
<ellipse class="st0" cx="489" cy="918" rx="39.7" ry="4"/>
<ellipse class="st0" cx="623" cy="918" rx="39.7" ry="4"/>
<path id="XMLID_122_" class="st1" d="M186.3,746.4h-36v16.8c-6.9,8.2-11.1,18.8-11.1,30.3c0,11.6,4.2,22.1,11.1,30.3v16.8h36
	c26,0,47.1-21.1,47.1-47.1C233.4,767.5,212.3,746.4,186.3,746.4z"/>
<path id="XMLID_117_" class="st2" d="M194.9,773.9v21.5c0,24.9-20.2,45.1-45.1,45.1s-45.1-20.2-45.1-45.1v-21.5H194.9z"/>
<path class="st3" d="M148.8,840.4c0.3,0,0.7,0,1,0c24.9,0,45.1-20.2,45.1-45.1v-21.5h-46.1V840.4z"/>
<path class="st1" d="M951.1,822.1h-37.7v-23.4L894,766.6c0-10.7,8.6-19.3,19.3-19.3h37.8c10.7,0,19.3,8.6,19.3,19.3v36.2
	C970.4,813.5,961.8,822.1,951.1,822.1z"/>
<path class="st2" d="M917,822.1h-46c-9.3,0-16.9-7.6-16.9-16.9v-41c0-9.3,7.6-16.9,16.9-16.9h46c9.3,0,16.9,7.6,16.9,16.9v41
	C933.9,814.6,926.4,822.1,917,822.1z"/>
<path class="st3" d="M914.6,747.3h-1.3v74.8h1.3c10.7,0,19.3-8.6,19.3-19.3v-36.2C933.9,756,925.3,747.3,914.6,747.3z"/>
<path class="st1" d="M1039.6,647.7l-50.8-88.4c-1.1-1.9-3.1-2.9-5.1-2.8v0h-40.7v64.8l-15.2,26.1c-2.2,3.7,0.5,8.4,4.8,8.4l102,0.2
	C1039,656.1,1041.7,651.5,1039.6,647.7z"/>
<path class="st2" d="M994.9,650.9c0-0.3,0-0.5,0-0.8v-28.7h-15.8l-35.7-62.2c-2.1-3.7-7.5-3.8-9.7,0l-36.1,62.2h-15.9v29.4h0
	c0.3,2.7,2.5,5,5.6,5l102,0.2C992.4,656.1,994.7,653.7,994.9,650.9L994.9,650.9L994.9,650.9z"/>
<path class="st3" d="M978.6,620.5v35.6l10.7,0c3.1,0,5.4-2.5,5.6-5.2l0,0c0-0.3,0-0.5,0-0.8v-28.7h-15.8L978.6,620.5z"/>
<path class="st1" d="M694.9,419.3c-9.4,0-17.7,4.2-23.4,10.8c-2.9,3.4-6.9,5.5-11.3,5.6c-3.8-4.1-9.3-6.7-15.3-6.7h-16.6v8.1
	c-2.8,3.6-4.4,8-4.4,12.9c0,4.9,1.7,9.3,4.4,12.9v8.1h16.6c6,0,11.5-2.6,15.3-6.6c4.3,0.2,8.4,2.1,11.2,5.4
	c5.9,7,14.9,11.4,24.9,10.9c16.4-0.7,29.5-14.6,29.4-31C725.5,432.9,711.8,419.3,694.9,419.3z"/>
<path class="st1" d="M535.6,669.6h-19.9v9.8c-3.3,4.3-5.3,9.6-5.3,15.5s2,11.2,5.3,15.5v9.8h19.9c13.9,0,25.2-11.3,25.2-25.2
	C560.8,680.9,549.5,669.6,535.6,669.6z"/>
<path class="st1" d="M178.5,630.2h-33.2v-20.5l-17-28.2c0-9.4,7.6-17,17-17h33.2c9.4,0,17,7.6,17,17v31.8
	C195.5,622.6,187.9,630.2,178.5,630.2z"/>
<path class="st1" d="M350.6,578.7h-14.9c-5.8-13.6-19.3-23.1-35-23.1c-21,0-38.1,17-38.1,38.1s17,38.1,38.1,38.1
	c15.7,0,29.2-9.5,35-23.1h14.9c8.2,0,14.9-6.7,14.9-14.9S358.9,578.7,350.6,578.7z"/>
<path class="st1" d="M463.7,695.7c-0.2,0-0.4,0-0.6,0v0h-74.3V720c-0.1,0.3-0.1,0.6-0.1,0.9c0,0.3,0,0.6,0.1,0.9v24.3h74.3v0
	c0.2,0,0.4,0,0.6,0c13.9,0,25.2-11.3,25.2-25.2S477.7,695.7,463.7,695.7z"/>
<path class="st1" d="M767,635.1h-78.8v82.7h6.7l-11.6,22.2h44.1l9.4-22.2H767c9.7,0,17.5-7.9,17.5-17.5v-47.6
	C784.6,642.9,776.7,635.1,767,635.1z"/>
<path class="st2" d="M896.5,747.3h-5v-4.3c0-32.6-26.5-59.1-59.1-59.1H724v-5h108.5c35.3,0,64.1,28.7,64.1,64.1V747.3z"/>
<rect x="160" y="591.2" class="st2" width="92.1" height="5"/>
<path class="st2" d="M148.6,630.2h-40.4c-8.2,0-14.8-6.6-14.8-14.8v-36c0-8.2,6.6-14.8,14.8-14.8h40.4c8.2,0,14.8,6.6,14.8,14.8v36
	C163.4,623.5,156.8,630.2,148.6,630.2z"/>
<path class="st2" d="M605.3,765.1c-51.6,0-93.5-35.6-93.5-79.3h5c0,41,39.7,74.3,88.5,74.3s88.5-33.3,88.5-74.3h5
	C698.8,729.5,656.9,765.1,605.3,765.1z"/>
<path class="st2" d="M940.8,571.7l-4.8-1.3c0.9-3.4-2.4-20.2-15.2-40.2c-13.7-21.3-39.8-48.4-86.5-56.7
	C763,461,709.3,489.9,688.9,509l-3.4-3.6c21.1-19.7,76.5-49.7,149.7-36.7c48.5,8.6,75.6,36.8,89.8,58.9
	C937.7,547.3,942.3,565.9,940.8,571.7z"/>
<path class="st2" d="M690.8,625.1h-5V496.8c0-19.9-7.6-34.2-22.6-42.5c-11.3-6.2-22.6-6.5-22.8-6.5l0.1-5c0.5,0,12.7,0.3,25,7.1
	c11.5,6.3,25.2,19.5,25.2,46.8L690.8,625.1L690.8,625.1z"/>
<rect x="411.3" y="442.9" class="st2" width="205.5" height="5"/>
<path id="XMLID_16_" class="st2" d="M649.3,432.4v17.7c0,11.6-9.4,21-21,21c-11.6,0-21-9.4-21-21v-17.7H649.3z"/>
<path class="st3" d="M627.7,432.4h21.6v17.7c0,11.6-9.4,21-21,21c-0.2,0-0.4,0-0.7,0V432.4z"/>
<rect x="513.2" y="577.1" class="st2" width="5" height="85.1"/>
<path class="st2" d="M473.1,568.7c-36.5,0-57.4-17.4-68.6-32c-12-15.8-15.3-31.4-15.5-32l4.9-1c0,0.2,3.3,15.3,14.7,30.2
	c15.2,19.8,36.9,29.9,64.5,29.9L473.1,568.7L473.1,568.7z"/>
<path class="st2" d="M329.9,752.2c-2.8,0-5.7-0.2-8.5-0.5c-23.4-2.6-40.5-15.9-46.9-36.5c-6-19.4-3.6-30.3-0.3-45.4
	c2.6-11.9,5.9-26.8,5.9-51h5c0,24.8-3.3,40-6,52.1c-3.3,14.9-5.4,24.7,0.2,42.9c5.8,18.7,21.3,30.7,42.7,33.1
	c25.9,2.9,53.6-9.2,64.3-28l4.3,2.5C379.9,739.9,355.3,752.2,329.9,752.2z"/>
<path class="st2" d="M663.2,655h-37.8c-24.9,0-58.9-6.5-79.9-37.4C532.9,599,531.1,580.8,531,580l5-0.5l-2.5,0.2l2.5-0.2
	c0,0.2,1.8,17.9,13.7,35.4c15.9,23.3,41.4,35.1,75.7,35.1h37.8L663.2,655L663.2,655z"/>
<path class="st2" d="M741.3,656c-7.6,0-12.9-1-13.4-1l0.9-4.9c0.3,0.1,31.7,5.6,52.4-11.6c12.4-10.3,18.7-26.8,18.7-48.9h5
	c0,23.7-6.9,41.4-20.5,52.7C770.6,653.7,753.1,656,741.3,656z"/>
<path class="st2" d="M484.7,815.4c-54,0-98-35.2-98-78.5h5c0,40.5,41.7,73.5,93,73.5V815.4z"/>
<path class="st2" d="M411.3,714.9v-5c72.8,0,80.7-90.2,80.7-129h5c0,21.1-2.2,51.9-12.6,79C470.3,696.4,445.7,714.9,411.3,714.9z"/>
<path id="XMLID_292_" class="st3" d="M830.1,523.8h-29.7v13.8c-5.7,6.8-9.1,15.5-9.1,25s3.4,18.3,9.1,25v13.8h29.7
	c21.5,0,38.9-17.4,38.9-38.9C869,541.2,851.5,523.8,830.1,523.8z"/>
<path id="XMLID_4_" class="st3" d="M636.8,537.3h-79.5v48.8H643v-42.7C643,540,640.2,537.3,636.8,537.3z"/>
<rect id="XMLID_44_" x="481.7" y="797" class="st2" width="142" height="47.1"/>
<path id="XMLID_3_" class="st4" d="M412.2,388h-48c-3.2,0-5.9,2.6-5.9,5.9v31.6H418v-31.6C418,390.6,415.4,388,412.2,388z"/>
<path id="XMLID_5_" class="st1" d="M488,467.3H418v46.8h75.7v-41C493.7,469.9,491.1,467.3,488,467.3z"/>
<rect id="XMLID_7_" x="473.1" y="537.3" class="st2" width="129.4" height="48.8"/>
<path id="XMLID_6_" class="st4" d="M594.7,499.8H480.8c-4.3,0-7.8,3.5-7.8,7.8v29.7h129.4v-29.7C602.5,503.3,599,499.8,594.7,499.8z
	"/>
<path class="st2" d="M771.1,536.9c7.1-8,17.5-13.1,29.1-13.1c11.6,0,22,5.1,29.1,13.1l9.8,9.1v20.6h-0.2
	c-2,19.6-18.5,34.9-38.7,34.9s-36.7-15.3-38.7-34.9h-0.2v-20.6L771.1,536.9z"/>
<path id="XMLID_30_" class="st2" d="M540.9,669.6v25.2c0,13.9-11.3,25.2-25.2,25.2s-25.2-11.3-25.2-25.2v-25.2L540.9,669.6
	L540.9,669.6z"/>
<path id="XMLID_32_" class="st3" d="M540.9,669.6v25.2c0,13.9-11.3,25.2-25.2,25.2v-50.4H540.9z"/>
<circle id="XMLID_18_" class="st5" cx="515.6" cy="669.6" r="25.2"/>
<path id="XMLID_15_" class="st2" d="M414.8,693.9V720c0,14.4-11.7,26.1-26.1,26.1s-26.1-11.7-26.1-26.1v-26.1H414.8z"/>
<path id="XMLID_14_" class="st3" d="M414.8,693.9V720c0,14.4-11.7,26.1-26.1,26.1v-52.2H414.8z"/>
<circle id="XMLID_13_" class="st6" cx="388.7" cy="693.9" r="26.1"/>
<g>
	<path id="XMLID_21_" class="st2" d="M599.4,642.6v4.2c0,7.4-6,13.4-13.4,13.4c-7.4,0-13.4-6-13.4-13.4v-4.2H599.4z"/>
	<path id="XMLID_17_" class="st3" d="M599.4,642.6v4.2c0,7.4-6,13.4-13.4,13.4v-17.6H599.4z"/>
	<circle id="XMLID_9_" class="st4" cx="586" cy="642.6" r="13.4"/>
</g>
<g>
	<path id="XMLID_24_" class="st2" d="M700.5,507.2v4.2c0,7.4-6,13.4-13.4,13.4s-13.4-6-13.4-13.4v-4.2H700.5z"/>
	<path id="XMLID_23_" class="st3" d="M700.5,507.2v4.2c0,7.4-6,13.4-13.4,13.4v-17.6H700.5L700.5,507.2z"/>
	<circle id="XMLID_22_" class="st6" cx="687.2" cy="507.2" r="13.4"/>
</g>
<rect id="XMLID_35_" x="481.7" y="789.5" class="st1" width="142" height="47.1"/>
<g id="XMLID_47_">
	<path id="XMLID_55_" class="st3" d="M520.5,809.9h-4.7v2.3c-0.8,1-1.2,2.3-1.2,3.6c0,1.4,0.5,2.6,1.2,3.6v2.3h4.7
		c3.3,0,5.9-2.7,5.9-5.9S523.8,809.9,520.5,809.9z"/>
	<path id="XMLID_49_" class="st2" d="M509.9,809.9v5.9c0,3.3,2.7,5.9,5.9,5.9s5.9-2.7,5.9-5.9v-5.9H509.9z"/>
	<circle id="XMLID_48_" class="st7" cx="515.8" cy="809.9" r="5.9"/>
</g>
<g id="XMLID_50_">
	<path id="XMLID_53_" class="st3" d="M539.3,809.9h-4.7v2.3c-0.8,1-1.2,2.3-1.2,3.6c0,1.4,0.5,2.6,1.2,3.6v2.3h4.7
		c3.3,0,5.9-2.7,5.9-5.9S542.5,809.9,539.3,809.9z"/>
	<path id="XMLID_52_" class="st2" d="M528.7,809.9v5.9c0,3.3,2.7,5.9,5.9,5.9s5.9-2.7,5.9-5.9v-5.9H528.7z"/>
	<circle id="XMLID_51_" class="st7" cx="534.6" cy="809.9" r="5.9"/>
</g>
<g id="XMLID_54_">
	<path id="XMLID_58_" class="st3" d="M558.1,809.9h-4.7v2.3c-0.8,1-1.2,2.3-1.2,3.6c0,1.4,0.5,2.6,1.2,3.6v2.3h4.7
		c3.3,0,5.9-2.7,5.9-5.9S561.3,809.9,558.1,809.9z"/>
	<path id="XMLID_57_" class="st2" d="M547.5,809.9v5.9c0,3.3,2.7,5.9,5.9,5.9s5.9-2.7,5.9-5.9v-5.9H547.5z"/>
	<circle id="XMLID_56_" class="st7" cx="553.4" cy="809.9" r="5.9"/>
</g>
<g id="XMLID_59_">
	<path id="XMLID_62_" class="st3" d="M576.9,809.9h-4.7v2.3c-0.8,1-1.2,2.3-1.2,3.6c0,1.4,0.5,2.6,1.2,3.6v2.3h4.7
		c3.3,0,5.9-2.7,5.9-5.9S580.1,809.9,576.9,809.9z"/>
	<path id="XMLID_61_" class="st2" d="M566.3,809.9v5.9c0,3.3,2.7,5.9,5.9,5.9s5.9-2.7,5.9-5.9v-5.9H566.3z"/>
	<circle id="XMLID_60_" class="st7" cx="572.2" cy="809.9" r="5.9"/>
</g>
<g id="XMLID_63_">
	<path id="XMLID_66_" class="st3" d="M595.7,809.9H591v2.3c-0.8,1-1.2,2.3-1.2,3.6c0,1.4,0.5,2.6,1.2,3.6v2.3h4.7
		c3.3,0,5.9-2.7,5.9-5.9S598.9,809.9,595.7,809.9z"/>
	<path id="XMLID_65_" class="st2" d="M585.1,809.9v5.9c0,3.3,2.7,5.9,5.9,5.9s5.9-2.7,5.9-5.9v-5.9H585.1z"/>
	<circle id="XMLID_64_" class="st7" cx="591" cy="809.9" r="5.9"/>
</g>
<path id="XMLID_235_" class="st6" d="M473.3,919.6c0,0,12.8-17.7-4.4-57c-17.2-39.3-14.3-37.2-14.3-37.2s-2.7-3.3,12.4-27.7
	c0,0,5,6.3-1,22.8c-2.1,5.8,7.2,19.2,7.2,19.2l-1.3-19.4c0,0-1-15,18.4-34.4c0,0,3.1,12.8-8.6,32l4.3,21.8l8.5-35.6
	c0,0,13.2-10.3,26.6-14.3c0,0,1.8,10.6-19,22.7l-3,29.4l8.1-35l18.4-12.9c0,0,3.1,7.3-9.5,18.2c0,0-7.5,27.1,2.1,62.9
	c0,0,5.8-28,21.8-38.4c0,0-6.6,55.2-19.5,62.7c-12.9,7.5-14,20-14,20L473.3,919.6z"/>
<g>
	<g>
		<defs>
			<ellipse id="SVGID_1_" cx="489" cy="918" rx="39.7" ry="4"/>
		</defs>
		<clipPath id="SVGID_2_">
			<use xlink:href="#SVGID_1_"  style="overflow:visible;"/>
		</clipPath>
		<path id="XMLID_2_" class="st8" d="M472,922c0,0,14.1-20.1-3.1-59.4c-17.2-39.3-14.3-37.2-14.3-37.2s-2.7-3.3,12.4-27.7
			c0,0,5,6.3-1,22.8c-2.1,5.8,7.2,19.2,7.2,19.2l-1.3-19.4c0,0-1-15,18.4-34.4c0,0,3.1,12.8-8.6,32l4.3,21.8l8.5-35.6
			c0,0,13.2-10.3,26.6-14.3c0,0,1.8,10.6-19,22.7l-3,29.4l8.1-35l18.4-12.9c0,0,3.1,7.3-9.5,18.2c0,0-7.5,27.1,2.1,62.9
			c0,0,5.8-28,21.8-38.4c0,0-6.6,55.2-19.5,62.7C507.6,907,506,922,506,922L472,922L472,922z"/>
	</g>
</g>
<g>
	<g>
		<defs>
			<ellipse id="SVGID_3_" cx="623" cy="918" rx="39.7" ry="4"/>
		</defs>
		<clipPath id="SVGID_4_">
			<use xlink:href="#SVGID_3_"  style="overflow:visible;"/>
		</clipPath>
		<path id="XMLID_8_" class="st9" d="M575.8,819.9c0,0,11.7-9.3,29.4-12c0,0,6.6,17.7,6.2,28.1l4.6-20c0,0-18.4-12.6-15.1-32.4
			c0,0,12.3,8.1,15.1,14.1c0,0-0.1-4.5,2.5-7c0,0,17.9,16.9,20.9,26.6l-2.3,27.1l8.3-12.9c0,0-8.6-22.4,2.7-27.1
			c0,0,8.9,16.5,8.1,27.9c0,0-19.6,31.9-21.1,62.6c-0.7,15.1,6.8,27.1,6.8,27.1h-38.1c0,0-32.9-41-33.1-84.6c0,0,12.4-1.3,20.3,34.8
			c2.5,11.4,13.2-34.8,7.2-52.2C598.1,820,584.9,828.3,575.8,819.9z"/>
	</g>
</g>
<path class="st3" d="M804.8,524.1c9.7,1.2,18.3,5.9,24.5,12.8h5.2l4.5,29.7h-0.2c-1.8,18.1-16.1,32.5-34,34.6L804.8,524.1
	L804.8,524.1z"/>
<circle id="XMLID_36_" class="st5" cx="800.2" cy="546.1" r="38.9"/>
<circle id="XMLID_10_" class="st10" cx="800.2" cy="546.1" r="28.9"/>
<path class="st2" d="M800.2,520.6c15.4,0,27.9,12,28.8,27.2c0-0.6,0.1-1.2,0.1-1.7c0-16-12.9-28.9-28.9-28.9
	c-16,0-28.9,12.9-28.9,28.9c0,0.6,0,1.2,0.1,1.7C772.3,532.6,784.8,520.6,800.2,520.6z"/>
<path class="st11" d="M294.4,558.2v-35.3h-30.3v35.3c-13.8,5.9-23.5,19.6-23.5,35.5c0,21.3,17.3,38.6,38.6,38.6
	c21.3,0,38.6-17.3,38.6-38.6C317.9,577.7,308.2,564,294.4,558.2z"/>
<circle class="st10" cx="257.3" cy="587.1" r="5.3"/>
<circle class="st10" cx="280.2" cy="613.8" r="4.4"/>
<circle class="st10" cx="273.5" cy="548.5" r="3.1"/>
<circle class="st10" cx="282.1" cy="571.7" r="6.3"/>
<circle class="st10" cx="297.2" cy="601.1" r="6.3"/>
<g>
	<circle class="st5" cx="800.2" cy="549.9" r="4.9"/>
	<polygon class="st5" points="805,549.1 800.2,527.7 795.4,549.1 	"/>
</g>
<path class="st12" d="M280.5,490.5V442c0-5-4.1-9.1-9.1-9.1h-78.7c-2.9,0-5.3,2.4-5.3,5.3v0.4c0,2.9,2.4,5.3,5.3,5.3h10.2
	c2.9,0,5.3,2.4,5.3,5.3l0,0c0,2.9-2.4,5.3-5.3,5.3h-23.4c-2.9,0-5.3,2.4-5.3,5.3v1.8c0,2.9,2.4,5.3,5.3,5.3h76.8
	c7,0,13.3,4.1,16.1,10.5l6.1,13.6C278.9,491.9,280.5,491.6,280.5,490.5z"/>
<path class="st12" d="M228.1,485.8h-10.8c-2.5,0-4.5-2-4.5-4.5v-1.3c0-2.5,2-4.5,4.5-4.5h10.8c2.5,0,4.5,2,4.5,4.5v1.3
	C232.6,483.8,230.6,485.8,228.1,485.8z"/>
<path class="st12" d="M242.5,425h-2c-2.5,0-4.5-2-4.5-4.5v-1.3c0-2.5,2-4.5,4.5-4.5h2c2.5,0,4.5,2,4.5,4.5v1.3
	C247,423,245,425,242.5,425z"/>
<path class="st10" d="M223.7,454h-2c-2.5,0-4.5-2-4.5-4.5v-1.3c0-2.5,2-4.5,4.5-4.5h2c2.5,0,4.5,2,4.5,4.5v1.3
	C228.2,452,226.2,454,223.7,454z"/>
<path class="st12" d="M248,485.8h-2c-2.5,0-4.5-2-4.5-4.5v-1.3c0-2.5,2-4.5,4.5-4.5h2c2.5,0,4.5,2,4.5,4.5v1.3
	C252.5,483.8,250.5,485.8,248,485.8z"/>
<circle id="XMLID_11_" class="st6" cx="628.3" cy="432.4" r="21"/>
<path class="st3" d="M628.3,446.7h15.3c3.5-3.7,5.7-8.8,5.7-14.3c0-6.2-2.7-11.8-7-15.6h-14V446.7z"/>
<path class="st4" d="M628,358.3c16.5-0.2,30.3,12.9,31,29.4c0.4,10-3.9,19-10.9,24.9c-3.6,3-5.5,7.5-5.5,12.1v7.8l0,0
	c0,7.9-6.4,14.3-14.3,14.3s-14.3-6.4-14.3-14.3l0,0v-8.1c0-4.6-2.2-9-5.7-12c-6.6-5.6-10.8-14-10.8-23.4
	C597.6,372.1,611.2,358.4,628,358.3z"/>
<path class="st13" d="M628,358.3c0.3,0,0.5,0,0.8,0c0,17.2-14,31.2-31.2,31.2c0-0.2,0-0.3,0-0.5C597.6,372.1,611.2,358.4,628,358.3z
	"/>
<circle class="st10" cx="619.7" cy="380.3" r="7.9"/>
<path class="st2" d="M714.3,717.7h-52c-8.5,0-15.4-6.9-15.4-15.4v-81h82.7v81C729.7,710.8,722.8,717.7,714.3,717.7z"/>
<rect x="587.7" y="544.3" class="st4" width="4" height="34.4"/>
<rect x="568.9" y="544.3" class="st4" width="4" height="34.4"/>
<rect x="550.1" y="544.3" class="st4" width="4" height="34.4"/>
<circle class="st2" cx="552.1" cy="553.8" r="4.6"/>
<circle class="st10" cx="552.1" cy="557.2" r="4.6"/>
<circle class="st2" cx="570.9" cy="566.1" r="4.6"/>
<circle class="st10" cx="570.9" cy="569.5" r="4.6"/>
<circle class="st2" cx="589.7" cy="556.9" r="4.6"/>
<circle class="st10" cx="589.7" cy="560.4" r="4.6"/>
<path class="st6" d="M528.5,574.8h-38.9c-2.7,0-5-2.2-5-5v-17.4c0-2.7,2.2-5,5-5h38.9c2.7,0,5,2.2,5,5v17.4
	C533.5,572.5,531.2,574.8,528.5,574.8z"/>
<path class="st14" d="M788.8,519.5c-10.3,4.4-17.5,14.7-17.5,26.6s7.2,22.1,17.5,26.6V519.5z"/>
<path class="st3" d="M294.4,558.2v-35.3h-15.1v42.5c-8.8,6.2-14.6,16.5-14.6,28.2c0,18.3,14.3,33.3,32.4,34.4
	c12.4-6.4,20.8-19.3,20.8-34.2C317.9,577.7,308.2,564,294.4,558.2z"/>
<circle class="st2" cx="279.3" cy="522.9" r="15.1"/>
<path class="st15" d="M391.3,710.9h-5.2c-10,0-18.2-8.2-18.2-18.2v-61.7c0-10,8.2-18.2,18.2-18.2h5.2c10,0,18.2,8.2,18.2,18.2v61.7
	C409.5,702.7,401.3,710.9,391.3,710.9z"/>
<path class="st15" d="M409.5,678.1c-4.8-6.2-12.3-10.3-20.7-10.3c-8.5,0-16,4-20.7,10.3v12c0,11.4,9.3,20.7,20.7,20.7l0,0
	c11.4,0,20.7-9.3,20.7-20.7V678.1z"/>
<path class="st10" d="M382.2,689.4h-0.9c-1.8,0-3.3-1.5-3.3-3.3v-44.6c0-1.8,1.5-3.3,3.3-3.3h0.9c1.8,0,3.3,1.5,3.3,3.3v44.6
	C385.5,687.9,384,689.4,382.2,689.4z"/>
<path class="st10" d="M395.7,689.4h-0.9c-1.8,0-3.3-1.5-3.3-3.3v-44.6c0-1.8,1.5-3.3,3.3-3.3h0.9c1.8,0,3.3,1.5,3.3,3.3v44.6
	C399,687.9,397.5,689.4,395.7,689.4z"/>
<rect id="XMLID_1_" x="358.3" y="425.5" class="st6" width="59.7" height="88.6"/>
<circle id="XMLID_357_" class="st2" cx="388.1" cy="484" r="20.2"/>
<circle id="XMLID_360_" class="st6" cx="388.1" cy="484" r="6"/>
<circle id="XMLID_359_" class="st2" cx="388.1" cy="445.4" r="11.3"/>
<circle id="XMLID_361_" class="st6" cx="388.1" cy="445.4" r="2.7"/>
<path class="st2" d="M147.9,756.8h-5v-4.3c0-35.3,28.7-64.1,64.1-64.1h63.4v5H207c-32.6,0-59.1,26.5-59.1,59.1
	C147.9,752.6,147.9,756.8,147.9,756.8z"/>
<path class="st2" d="M917,800h-46c-9.3,0-16.9-7.6-16.9-16.9v-38.3c0-10.9,8.8-19.7,19.7-19.7H917c9.3,0,16.9,7.6,16.9,16.9v41
	C933.9,792.5,926.4,800,917,800z"/>
<path class="st5" d="M913.4,725.2h-39.9c-10.7,0-19.3,8.6-19.3,19.3v36.2c0,10.7,8.6,19.3,19.3,19.3h39.9V725.2z"/>
<g>
	<circle class="st6" cx="923.4" cy="746.6" r="3.9"/>
	<circle class="st6" cx="923.4" cy="762.8" r="3.9"/>
	<circle class="st6" cx="923.4" cy="779" r="3.9"/>
</g>
<circle id="XMLID_119_" class="st16" cx="149.7" cy="775.4" r="45.1"/>
<circle id="XMLID_118_" class="st6" cx="149.7" cy="775.4" r="30.1"/>
<polygon class="st2" points="160.1,787.5 147.1,774.4 139.9,781.6 127.5,769.2 116.2,780.5 114.6,778.9 127.5,765.9 139.9,778.3 
	147.1,771.2 160.1,784.2 181.4,763 183,764.6 "/>
<path id="XMLID_114_" class="st4" d="M138.5,731.7c-24.1,6.2-38.7,30.8-32.5,55s30.8,38.7,55,32.5c24.1-6.2,38.7-30.8,32.5-55
	S162.6,725.5,138.5,731.7z M175.7,790.8c-8.5,14.3-27,19.1-41.3,10.6s-19.1-27-10.6-41.3c8.5-14.3,27-19.1,41.3-10.6
	C179.4,758,184.1,776.4,175.7,790.8z"/>
<circle class="st10" cx="160.9" cy="764.6" r="6.8"/>
<g>
	<path id="XMLID_28_" class="st2" d="M287.2,690.7v4.2c0,7.4-6,13.4-13.4,13.4s-13.4-6-13.4-13.4v-4.2H287.2z"/>
	<path id="XMLID_27_" class="st3" d="M287.2,690.7v4.2c0,7.4-6,13.4-13.4,13.4v-17.6H287.2z"/>
	<circle id="XMLID_25_" class="st4" cx="273.8" cy="690.7" r="13.4"/>
</g>
<path id="XMLID_120_" class="st4" d="M882.5,619.1l51.2-88.2c2.2-3.7,7.6-3.7,9.7,0l50.8,88.4c2.1,3.7-0.6,8.4-4.9,8.4l-102-0.2
	C883,627.5,880.3,622.8,882.5,619.1z"/>
<rect x="926.5" y="568.2" transform="matrix(-0.8509 -0.5254 0.5254 -0.8509 1409.2682 1575.3212)" class="st2" width="3.4" height="38.9"/>
<rect x="917.9" y="604.6" transform="matrix(-0.9929 -0.1189 0.1189 -0.9929 1793.1456 1319.5175)" class="st2" width="36.1" height="3.4"/>
<circle class="st2" cx="938.4" cy="571.1" r="10.6"/>
<circle class="st2" cx="953.9" cy="608.5" r="7.9"/>
<circle class="st2" cx="918" cy="604.2" r="9.9"/>
<path class="st3" d="M711,717.7h1.2c9.7,0,17.5-7.9,17.5-17.5v-78.8H711L711,717.7L711,717.7z"/>
<g>
	<path class="st11" d="M714.3,679.5h-52c-8.5,0-15.4-6.9-15.4-15.4v-44.5c0-8.5,6.9-15.4,15.4-15.4h52c8.5,0,15.4,6.9,15.4,15.4
		v44.5C729.7,672.6,722.8,679.5,714.3,679.5z"/>
	<circle class="st2" cx="711" cy="620.8" r="6.2"/>
	<circle class="st2" cx="711" cy="640.9" r="6.2"/>
	<circle class="st4" cx="711" cy="660.9" r="6.2"/>
</g>
<g>
	<rect x="663.2" y="695.6" class="st10" width="50.3" height="37.6"/>
	<rect x="670.2" y="695.6" class="st4" width="36.2" height="28.6"/>
	<rect x="663.2" y="695.6" class="st3" width="50.3" height="6.2"/>
</g>
<path class="st3" d="M149.8,564.8v65.1c7.8-1.6,13.6-8.4,13.6-16.6v-31.8C163.4,573.2,157.6,566.3,149.8,564.8z"/>
<path class="st11" d="M148.6,610.8h-40.4c-8.2,0-14.8-6.6-14.8-14.8v-36c0-8.2,6.6-14.8,14.8-14.8h40.4c8.2,0,14.8,6.6,14.8,14.8v36
	C163.4,604.1,156.8,610.8,148.6,610.8z"/>
<g>
	<circle class="st2" cx="128.7" cy="578.8" r="20.8"/>
	
		<rect x="116.4" y="556.3" transform="matrix(0.484 -0.8751 0.8751 0.484 -429.705 400.2709)" class="st2" width="16.4" height="16.4"/>
	<path class="st3" d="M128.7,568.3l20,0.1c5.7,0,10.3,4.7,10.3,10.4l0,0c0,5.7-4.7,10.3-10.4,10.3l-20-0.1L128.7,568.3z"/>
	<circle class="st6" cx="128.7" cy="578.8" r="10.5"/>
</g>
<path class="st6" d="M648.1,804.4c-11.4,4.6-2.7,27.1-2.7,27.1l-8.3,12.9l2.3-27.1c-3-9.7-20.9-26.6-20.9-26.6c-2.6,2.5-2.5,7-2.5,7
	c-2.8-5.9-15.1-14.1-15.1-14.1c-3.4,19.7,15.1,32.4,15.1,32.4l-4.6,20c0.4-10.4-6.2-28.1-6.2-28.1c-17.7,2.7-29.4,12-29.4,12
	c9,8.4,22.3,0.1,22.3,0.1c6,17.4-4.6,63.7-7.2,52.2c-8-36.1-20.3-34.8-20.3-34.8c0.2,35.5,22,69.5,30.1,80.5h39
	c-2.2-5-5.2-13.3-4.7-23.1c1.5-30.7,21.1-62.6,21.1-62.6C657,820.9,648.1,804.4,648.1,804.4z"/>
</svg>
