<svg version="1.1" class="headerRight" xmlns="http://www.w3.org/2000/svg" xmlns:xlink="http://www.w3.org/1999/xlink" x="0px" y="0px" viewBox="-111 -584 976 1280" style="enable-background:new -111 -584 976 1280;" xml:space="preserve">
	<style>
		.st0{fill:none;stroke:#3A3A59;stroke-width:12;stroke-miterlimit:10;}
        .st1{fill:#3A3A59;}
        .st2{fill:#0E69A1;}
        .st3{fill:#169CEE;}
        .st4{fill:#F15732;}
        .st5{fill:#FFFFFF;}
        .st6{fill:#555574;}
        .st7{fill:#4BBC6E;}
        .st8{fill:#EF3F61;}
        .st9{fill:none;stroke:#3A3A59;stroke-width:16;stroke-linecap:round;stroke-miterlimit:10;}
        .st10{fill:none;stroke:#0E69A1;stroke-width:8;stroke-miterlimit:10;}
        .st11{fill:#159CEE;}
        .st13{fill:none;stroke:#169CEE;stroke-width:8;stroke-miterlimit:10;}
        .st14{fill:none;stroke:#3A3A59;stroke-width:8;stroke-linecap:round;stroke-linejoin:round;stroke-miterlimit:10;}
        .st15{fill:none;stroke:#3A3A59;stroke-width:8;stroke-linecap:round;stroke-miterlimit:10;}
        .st16{opacity:0.3;fill:#FFFFFF;enable-background:new;}
        .st17{fill:none;stroke:#0E69A1;stroke-width:8;stroke-linecap:round;stroke-miterlimit:10;}
        .st18{fill:none;stroke:#3A3A59;stroke-width:8;stroke-miterlimit:10;}
        .st19{fill: #4BBC6E;}
    </style>
	<g id="scaffold">
		<line class="st0" x1="119.3" y1="697.4" x2="-32.3" y2="604.6"/>
		<line class="st0" x1="-32.3" y1="697.4" x2="119.3" y2="604.6"/>
		<line class="st0" x1="119.3" y1="576.2" x2="-32.3" y2="483.4"/>
		<line class="st0" x1="-32.3" y1="576.2" x2="119.3" y2="483.4"/>
		<rect x="119.3" y="455.1" class="st1" width="8.8" height="242"/>
		<rect x="-41.1" y="455.1" class="st1" width="8.8" height="242"/>
		<rect x="115.9" y="669.7" class="st2" width="15.6" height="27.7"/>
		<rect x="-44.5" y="669.7" class="st2" width="15.6" height="27.7"/>
		<rect x="-41.1" y="595" class="st2" width="169.2" height="9.6"/>
		<rect x="-52.3" y="576.2" class="st3" width="191.5" height="19.2"/>
		<rect x="-41.1" y="473.8" class="st2" width="169.2" height="9.6"/>
		<rect x="-52.3" y="455" class="st3" width="191.5" height="19.2"/>
		<g>
			<path class="st4" d="M-53.3,622.7c11.8,7.4,15.7,23,8.7,35.1c-4.3,7.3-11.5,11.8-19.2,12.8c-3.9,0.5-7.3,2.8-9.5,6.1l-3.5,5.5
				l0,0c-3.6,5.6-11.1,7.3-16.7,3.7c-5.6-3.6-7.3-11.1-3.7-16.7l0,0l3.7-5.8c2.1-3.3,2.6-7.4,1.4-11.1c-2.1-7-1.3-14.9,3-21.6
				C-81.3,618.7-65.4,615.2-53.3,622.7z"/>
			<circle class="st5" cx="-71.6" cy="629.8" r="6.7"/>
			
				<rect x="-104" y="674.4" transform="matrix(-0.8421 -0.5394 0.5394 -0.8421 -537.6954 1209.2786)" class="st6" width="24.4" height="18"/>
		</g>
	</g>
	<g id="phone2">
		<g>
			<path class="st1" d="M291.8,696H106.3c-17.7,0-32-14.3-32-32V248c0-17.7,14.3-32,32-32h185.5c17.7,0,32,14.3,32,32v416
				C323.8,681.7,309.5,696,291.8,696z"/>
			<path class="st7" d="M223.6,675.7h-49c-5,0-9.2-4.1-9.2-9.2v-6.1c0-5,4.1-9.2,9.2-9.2h49c5,0,9.2,4.1,9.2,9.2v6.1
				C232.8,671.6,228.6,675.7,223.6,675.7z"/>
		</g>
	</g>
</svg>