<?xml version="1.0" encoding="utf-8"?>
<!-- Generator: Adobe Illustrator 19.1.0, SVG Export Plug-In . SVG Version: 6.00 Build 0)  -->
<svg version="1.1" id="Layer_1" xmlns="http://www.w3.org/2000/svg" xmlns:xlink="http://www.w3.org/1999/xlink" x="0px" y="0px"
	 viewBox="120 -584 4320 1280" style="enable-background:new 120 -584 4320 1280;" xml:space="preserve">
<style type="text/css">
	.st0{fill:#ebebf2;}
</style>
<polygon class="st0" points="4417,223 4417,175 4397,175 4397,143 4277,143 4277,175 4257,175 4257,223 4234,223 4234,304.7 
	4223.8,304.7 4223.8,296.7 4135.8,296.7 4135.8,304.7 4127.1,304.7 4127.1,319.4 4048.2,319.4 4048.2,307.4 4036.2,307.4 
	4036.2,319.4 4030.2,319.4 4030.2,299.4 4018.2,299.4 4018.2,319.4 4001.1,319.4 4001.1,327.4 3993.1,327.4 3993.1,343.4 
	4005.6,343.4 4005.6,450.1 3956.5,450.1 3956.5,411 3899.2,411 3899.2,400.7 3893.2,400.7 3893.2,368.7 3881.2,368.7 3881.2,400.7 
	3875.2,400.7 3875.2,376.7 3867.2,376.7 3867.2,400.7 3825.6,400.7 3825.6,411 3815.6,411 3815.6,309.9 3805.6,309.9 3805.6,297.9 
	3687,297.9 3687,309.9 3677,309.9 3677,310 3676.9,310 3676.9,364.7 3553,364.7 3553,335 3456.7,335 3456.7,325 3446.7,325 
	3446.7,335 3441.7,335 3441.7,319 3431.7,319 3431.7,335 3421.7,335 3421.7,248.5 3230.8,248.5 3230.8,314.2 3091.6,314.2 
	3091.6,302.2 3034.8,302.2 3034.8,292.2 3026.8,292.2 3026.8,302.2 3018.8,302.2 3018.8,281.1 3010.8,281.1 3010.8,302.2 
	2996.9,302.2 2996.9,314.2 3002.7,314.2 3002.7,357.8 2974.8,357.8 2974.8,348 2938.8,348 2938.8,336 2930.8,336 2930.8,348 
	2930.8,357.8 2922.8,357.8 2922.8,485.7 2848.8,485.7 2848.8,477.1 2854.9,477.1 2854.9,461.1 2846.9,461.1 2846.9,453.1 
	2829.8,453.1 2829.8,433.1 2817.8,433.1 2817.8,453.1 2811.8,453.1 2811.8,441.1 2799.8,441.1 2799.8,453.1 2664,453.1 2664,430.3 
	2556,430.3 2556,397 2563.4,397 2563.4,385 2547.4,385 2547.4,377 2517.4,377 2517.4,365 2437.4,365 2437.4,377 2387.4,377 
	2387.4,365 2379.4,365 2379.4,377 2371.4,377 2371.4,353 2359.4,353 2359.4,377 2339.4,377 2339.4,385 2323.4,385 2323.4,397 
	2330.7,397 2330.7,449.9 2252.9,449.9 2252.9,473.7 2148.9,473.7 2148.9,457 2142.7,457 2142.7,445 2136.7,445 2136.7,421 
	2124.7,421 2124.7,445 2100.7,445 2100.7,368.3 2103.5,368.3 2103.5,358.3 2068.7,358.3 2068.7,350.3 2060.7,350.3 2060.7,334.3 
	2052.7,334.3 2052.7,350.3 2044.7,350.3 2044.7,340.3 2036.7,340.3 2036.7,350.3 1996.7,350.3 1996.7,358.3 1891.5,358.3 
	1891.5,368.3 1894.2,368.3 1894.2,415.4 1876.1,415.4 1876.1,403.4 1793.4,403.4 1793.4,391.4 1733.4,391.4 1733.4,403.4 
	1724.1,403.4 1724.1,415.4 1710.1,415.4 1710.1,439.7 1641.3,439.7 1641.3,379.2 1509.4,379.2 1509.4,335 1465.1,335 1465.1,323 
	1453.1,323 1453.1,335 1441.1,335 1441.1,311 1429.1,311 1429.1,335 1417.1,335 1417.1,272.2 1411.8,272.2 1411.8,264.2 
	1315.8,264.2 1315.8,272.2 1310.5,272.2 1310.5,285.6 1273.5,285.6 1273.5,227.7 1277.2,227.7 1277.2,215.7 1263.2,215.7 
	1263.2,207.7 1253.7,207.7 1253.7,183.7 1245.7,183.7 1245.7,207.7 1237.7,207.7 1237.7,195.7 1229.7,195.7 1229.7,207.7 
	1211.3,207.7 1211.3,215.7 1124.6,215.7 1124.6,227.7 1129,227.7 1129,278.3 985.2,278.3 985.2,383.4 969,383.4 969,367.4 
	953,367.4 953,359.4 929,359.4 929,375.4 850,375.4 850,383.4 840,383.4 840,399.6 804.7,399.6 804.7,387.6 792.7,387.6 
	792.7,399.6 780.7,399.6 780.7,375.6 768.7,375.6 768.7,399.6 756.7,399.6 756.7,363.1 664.9,363.1 664.9,346 677.7,346 677.7,334 
	668.6,334 668.6,326 507.1,326 507.1,314 495.1,314 495.1,326 489.1,326 489.1,306 477.1,306 477.1,326 460,326 460,334 452,334 
	452,346 462.6,346 462.6,434.7 415.5,434.7 415.5,349.5 386,349.5 386,341.5 379.8,341.5 379.8,349.5 367.4,349.5 367.4,337.5 
	361.2,337.5 361.2,349.5 348.8,349.5 348.8,374.6 286.3,374.6 286.3,358.6 276.3,358.6 276.3,374.6 271.3,374.6 271.3,350.6 
	261.3,350.6 261.3,374.6 251.3,374.6 251.3,310 235.3,310 235.3,294 219.3,294 219.3,286 195.3,286 195.3,310 120,310 120,696 
	4440,696 4440,223 "/>
</svg>
