<?xml version="1.0" encoding="utf-8"?>
<!-- Generator: Adobe Illustrator 19.1.0, SVG Export Plug-In . SVG Version: 6.00 Build 0)  -->
<svg version="1.1" id="Layer_1" xmlns="http://www.w3.org/2000/svg" xmlns:xlink="http://www.w3.org/1999/xlink" x="0px" y="0px"
	 viewBox="0 0 32 32" style="enable-background:new 0 0 32 32;" xml:space="preserve">
<style type="text/css">
	.st0{clip-path:url(#SVGID_2_);}
	.st1{clip-path:url(#SVGID_4_);fill:#00C26E;}
</style>
<g>
	<defs>
		<path id="SVGID_1_" d="M25,11.4c0.4,0,0.8,0.2,1,0.5c0.3,0.3,0.4,0.7,0.4,1v7c0,0.4-0.1,0.8-0.4,1.1c-0.3,0.3-0.6,0.4-1,0.4
			c-0.4,0-0.8-0.2-1.1-0.5c-0.3-0.3-0.4-0.7-0.4-1.1v-7c0-0.4,0.1-0.8,0.4-1.1C24.2,11.5,24.6,11.4,25,11.4z M18.9,7.1
			c-0.2,0-0.4,0.1-0.6,0.2c-0.1,0.2-0.2,0.3-0.2,0.5c0,0.2,0.1,0.4,0.2,0.6c0.1,0.2,0.3,0.2,0.6,0.2c0.2,0,0.4-0.1,0.5-0.2
			c0.2-0.2,0.2-0.3,0.2-0.5c0-0.2-0.1-0.4-0.2-0.6C19.3,7.1,19.1,7.1,18.9,7.1z M12.1,7.1c-0.2,0-0.4,0.1-0.5,0.2
			c-0.1,0.2-0.2,0.3-0.2,0.5c0,0.2,0.1,0.4,0.2,0.6c0.2,0.2,0.3,0.2,0.5,0.2c0.2,0,0.4-0.1,0.5-0.2c0.1-0.2,0.2-0.3,0.2-0.5
			c0-0.2-0.1-0.4-0.2-0.6C12.5,7.1,12.3,7.1,12.1,7.1z M20.4,2.8l-1.4,2.3c1.1,0.6,2,1.4,2.7,2.4c0.7,1,1,2.1,1.1,3.3H8.2
			c0-1.2,0.4-2.3,1-3.4C10,6.4,10.9,5.6,12,5l-1.4-2.2L11,2.5l1.4,2.3c0.9-0.4,1.9-0.6,3-0.6c1.1,0,2.2,0.2,3.1,0.7L20,2.5L20.4,2.8
			z M22.7,11.5v10.8c0,0.4-0.2,0.8-0.5,1.1c-0.3,0.3-0.7,0.5-1.1,0.4h-1.4v4c0,0.4-0.2,0.8-0.4,1.1c-0.3,0.3-0.6,0.5-1,0.5
			c-0.4,0-0.7-0.2-1-0.5c-0.3-0.3-0.4-0.7-0.4-1.1v-4h-2.7v4c0,0.4-0.1,0.8-0.4,1.1c-0.3,0.3-0.7,0.5-1.1,0.5c-0.4,0-0.8-0.2-1-0.5
			c-0.3-0.3-0.4-0.7-0.4-1.1v-4H9.8c-0.4,0-0.8-0.2-1.1-0.5c-0.3-0.3-0.5-0.7-0.5-1.1V11.5H22.7z M4.5,12.9c0-0.4,0.1-0.8,0.4-1.1
			c0.3-0.3,0.6-0.4,1-0.4c0.4,0,0.8,0.2,1.1,0.5c0.3,0.3,0.4,0.7,0.4,1v7c0,0.4-0.1,0.8-0.4,1.1c-0.3,0.3-0.6,0.4-1,0.4
			c-0.4,0-0.8-0.2-1.1-0.5c-0.3-0.3-0.4-0.7-0.4-1.1V12.9z"/>
	</defs>
	<clipPath id="SVGID_2_">
		<use xlink:href="#SVGID_1_"  style="overflow:visible;"/>
	</clipPath>
	<g class="st0">
		<defs>
			<rect id="SVGID_3_" x="4.4" y="2.4" width="22.2" height="27.1"/>
		</defs>
		<clipPath id="SVGID_4_">
			<use xlink:href="#SVGID_3_"  style="overflow:visible;"/>
		</clipPath>
		<rect x="3.5" y="1.6" class="st1" width="23.8" height="28.7"/>
	</g>
</g>
</svg>
