<?xml version="1.0" encoding="utf-8"?>
<!-- Generator: Adobe Illustrator 19.1.0, SVG Export Plug-In . SVG Version: 6.00 Build 0)  -->
<svg version="1.1" id="Layer_1" xmlns="http://www.w3.org/2000/svg" xmlns:xlink="http://www.w3.org/1999/xlink" x="0px" y="0px"
	 viewBox="0 0 32 32" style="enable-background:new 0 0 32 32;" xml:space="preserve">
<style type="text/css">
	.st0{fill:#4E95FF;}
</style>
<path class="st0" d="M28.6,12.6c0.6,0.9,0.9,2,0.9,3.3s-0.6,2.5-1.6,3.6c-1,1.1-2.3,1.6-3.8,1.6h-2.6l2-1.9h0.6c1,0,1.8-0.4,2.5-1
	c0.6-0.7,1-1.5,1-2.4c0-0.8-0.2-1.6-0.6-2.2c-0.4-0.6-0.9-1-1.6-1.4l-1-0.5v-1.2v-0.1v-0.3c0-1.7-0.6-3.2-1.8-4.4S20,3.9,18.3,3.9
	c-1.2,0-2.3,0.4-3.3,1s-1.7,1.6-2.3,2.6l-0.9,1.8l-1.7-1.2C9.8,7.9,9.3,7.7,8.8,7.7c-0.5,0-0.9,0.2-1.4,0.6C7.1,8.7,6.9,9.2,6.9,9.5
	c0,0.4,0,0.6,0.1,0.7l0.4,1.3l-1.2,0.6c-1.3,0.7-1.9,1.7-1.9,3.1c0,1,0.4,1.8,1.1,2.6C6.1,18.6,7,19,8,19h1.2l-1.9,1.8
	C5.9,20.6,4.8,20,3.9,19c-0.9-1-1.4-2.3-1.4-3.7c0-2,0.8-3.6,2.6-4.7C5,10.3,5,10,5,9.6c0-1.1,0.4-1.9,1.2-2.8s1.6-1.1,2.5-1.1
	s1.7,0.2,2.5,0.6c0.6-1.3,1.7-2.4,2.9-3.2S16.8,2,18.4,2c2.2,0,4.1,0.8,5.7,2.4c1.6,1.6,2.4,3.5,2.4,5.8v0.4
	C27.3,11.1,28,11.7,28.6,12.6z M16.7,19.1h3.7L8.7,30l5.4-8.8h-3.7l10.7-9.9L16.7,19.1z"/>
</svg>
