<?xml version="1.0" encoding="utf-8"?>
<!-- Generator: Adobe Illustrator 19.1.0, SVG Export Plug-In . SVG Version: 6.00 Build 0)  -->
<svg version="1.1" id="Layer_1" xmlns:sketch="http://www.bohemiancoding.com/sketch/ns"
	 xmlns="http://www.w3.org/2000/svg" xmlns:xlink="http://www.w3.org/1999/xlink" x="0px" y="0px" viewBox="-575 33 48 48"
	 style="enable-background:new -575 33 48 48;" xml:space="preserve">
<style type="text/css">
	.st0{fill:#66637A;}
</style>
<title>forks</title>
<desc>Created with Sketch.</desc>
<g id="Page-1" sketch:type="MSPage">
	<g id="forks" sketch:type="MSArtboardGroup">
		<path id="Shape" sketch:type="MSShapeGroup" class="st0" d="M-536.3,48.2c0-3.3-2.6-5.9-5.9-5.9c-3.3,0-5.9,2.6-5.9,5.9
			c0,2.1,1.2,4,2.9,5v0.8c0,1.5-0.7,2.9-1.9,4c-1.1,1.1-2.5,1.8-4,1.9c-2.4,0-4.4,0.5-5.9,1.3V47.4c1.8-1,2.9-2.9,2.9-5
			c0-3.3-2.6-5.9-5.9-5.9c-3.3,0-5.9,2.6-5.9,5.9c0,2.1,1.2,4,2.9,5v19.2c-1.8,1-2.9,2.9-2.9,5c0,3.3,2.6,5.9,5.9,5.9
			c3.3,0,5.9-2.6,5.9-5.9c0-1.6-0.6-2.9-1.6-4c0.3-0.2,1.4-1.2,1.8-1.4c0.7-0.3,1.7-0.5,2.7-0.5c3.1-0.1,5.7-1.3,8-3.6
			c2.3-2.3,3.5-5.8,3.6-8.9l0,0C-537.5,52.2-536.3,50.4-536.3,48.2L-536.3,48.2z M-559.7,38.8c2,0,3.5,1.6,3.5,3.5s-1.6,3.5-3.5,3.5
			s-3.5-1.6-3.5-3.5S-561.6,38.8-559.7,38.8L-559.7,38.8z M-559.7,75.2c-2,0-3.5-1.6-3.5-3.5c0-2,1.6-3.5,3.5-3.5s3.5,1.6,3.5,3.5
			C-556.1,73.6-557.8,75.2-559.7,75.2L-559.7,75.2z M-542.1,51.8c-2,0-3.5-1.6-3.5-3.5s1.6-3.5,3.5-3.5c2,0,3.5,1.6,3.5,3.5
			S-540.2,51.8-542.1,51.8L-542.1,51.8z"/>
	</g>
</g>
</svg>
