<?xml version="1.0" encoding="UTF-8" standalone="no"?>
<svg width="48px" height="48px" viewBox="0 0 48 48" version="1.1" xmlns="http://www.w3.org/2000/svg" xmlns:xlink="http://www.w3.org/1999/xlink" xmlns:sketch="http://www.bohemiancoding.com/sketch/ns">
    <!-- Generator: Sketch 3.3.3 (12072) - http://www.bohemiancoding.com/sketch -->
    <title>forksDark</title>
    <desc>Created with Sketch.</desc>
    <defs></defs>
    <g id="Page-1" stroke="none" stroke-width="1" fill="none" fill-rule="evenodd" sketch:type="MSPage">
        <g id="forksDark" sketch:type="MSArtboardGroup" fill="#66637A">
            <path d="M39.7142857,13.5714286 C39.7142857,10.0848214 36.9151786,7.28571429 33.4285714,7.28571429 C29.9419643,7.28571429 27.1428571,10.0848214 27.1428571,13.5714286 C27.1428571,15.8794643 28.4196429,17.8928571 30.2857143,18.9732143 L30.2857143,19.90625 C30.2366071,21.5267857 29.5491071,23 28.3214286,24.2276786 C27.09375,25.4553571 25.6205357,26.1428571 24,26.1919643 C21.3973214,26.2410714 19.3348214,26.6830357 17.7142857,27.6160714 L17.7142857,12.6875 C19.5803571,11.6071429 20.8571429,9.59375 20.8571429,7.28571429 C20.8571429,3.79910714 18.0580357,1 14.5714286,1 C11.0848214,1 8.28571429,3.79910714 8.28571429,7.28571429 C8.28571429,9.59375 9.5625,11.6071429 11.4285714,12.6875 L11.4285714,33.3125 C9.5625,34.3928571 8.28571429,36.40625 8.28571429,38.7142857 C8.28571429,42.2008929 11.0848214,45 14.5714286,45 C18.0580357,45 20.8571429,42.2008929 20.8571429,38.7142857 C20.8571429,37.0446429 20.21875,35.5714286 19.1875,34.4419643 C19.4821429,34.2455357 20.7098214,33.1651786 21.0535714,32.96875 C21.8392857,32.625 22.8214286,32.4285714 24,32.4285714 C27.2901786,32.28125 30.1383929,31.0044643 32.6428571,28.5 C35.1473214,25.9955357 36.4241071,22.2633929 36.5714286,19.0223214 L36.5223214,19.0223214 C38.4375,17.8928571 39.7142857,15.8794643 39.7142857,13.5714286 L39.7142857,13.5714286 Z M14.5714286,3.50446429 C16.6339286,3.50446429 18.3526786,5.22321429 18.3526786,7.28571429 C18.3526786,9.34821429 16.6339286,11.0669643 14.5714286,11.0669643 C12.5089286,11.0669643 10.7901786,9.34821429 10.7901786,7.28571429 C10.7901786,5.22321429 12.5089286,3.50446429 14.5714286,3.50446429 L14.5714286,3.50446429 Z M14.5714286,42.4955357 C12.5089286,42.4955357 10.7901786,40.7767857 10.7901786,38.7142857 C10.7901786,36.6517857 12.5089286,34.9330357 14.5714286,34.9330357 C16.6339286,34.9330357 18.3526786,36.6517857 18.3526786,38.7142857 C18.3526786,40.7767857 16.6339286,42.4955357 14.5714286,42.4955357 L14.5714286,42.4955357 Z M33.4285714,17.3526786 C31.3660714,17.3526786 29.6473214,15.6339286 29.6473214,13.5714286 C29.6473214,11.5089286 31.3660714,9.79017857 33.4285714,9.79017857 C35.4910714,9.79017857 37.2098214,11.5089286 37.2098214,13.5714286 C37.2098214,15.6339286 35.4910714,17.3526786 33.4285714,17.3526786 L33.4285714,17.3526786 Z" id="Shape" sketch:type="MSShapeGroup"></path>
        </g>
    </g>
</svg>