<?xml version="1.0" encoding="utf-8"?>
<!-- Generator: Adobe Illustrator 19.1.0, SVG Export Plug-In . SVG Version: 6.00 Build 0)  -->
<svg version="1.1" id="Layer_1" xmlns:sketch="http://www.bohemiancoding.com/sketch/ns"
	 xmlns="http://www.w3.org/2000/svg" xmlns:xlink="http://www.w3.org/1999/xlink" x="0px" y="0px" viewBox="-583 41 32 32"
	 style="enable-background:new -583 41 32 32;" xml:space="preserve">
<style type="text/css">
	.st0{fill:#169CEE;}
</style>
<title>github</title>
<desc>Created with Sketch.</desc>
<g id="Page-1" sketch:type="MSPage">
	<g id="github" sketch:type="MSArtboardGroup">
		<path sketch:type="MSShapeGroup" class="st0" d="M-563.9,66.4c0-1.1,0-2,0-2.8c0-0.7-0.2-1.3-0.7-1.8c0.2,0,0.7-0.1,1.3-0.2
			c1.4-0.3,2.4-1,2.9-2.1c0.6-1.2,0.7-2.5,0.4-3.8c-0.1-0.5-0.3-0.9-0.5-1.2c-0.3-0.3-0.4-0.5-0.3-0.6c0.2-0.7,0.2-1.5-0.1-2.4
			c-0.1-0.2-0.2-0.2-0.3-0.2c-0.6,0-1.5,0.3-2.5,0.9c-0.2,0.1-0.3,0.1-0.3,0.1c-1.6-0.4-3.3-0.4-4.9,0c-0.1,0-0.2,0-0.3-0.1
			c-0.9-0.5-1.6-0.9-2.2-0.9c-0.3-0.1-0.4-0.1-0.5,0c-0.1,0.1-0.1,0.2-0.2,0.4c-0.2,0.8-0.2,1.5,0,2.2c0,0.1,0,0.2-0.1,0.2
			c-0.8,1-1.1,2.2-0.9,3.7c0.3,2,1.4,3.3,3.4,3.8c0.1,0,0.5,0.1,1.3,0.3c-0.3,0.3-0.5,0.7-0.6,1.2c0,0.1-0.1,0.2-0.1,0.2
			c-1.3,0.5-2.2,0.2-2.9-0.8c-0.4-0.6-0.9-1-1.4-1.1c-0.2,0-0.4,0-0.5,0c-0.2,0-0.2,0.1-0.1,0.3c0.1,0.1,0.2,0.2,0.3,0.2
			c0.5,0.3,0.9,0.8,1.2,1.4c0.4,0.9,1.1,1.4,2.2,1.5c0.1,0,0.6,0,1.4-0.1v1.9c0,0.2-0.1,0.3-0.2,0.4c-0.2,0.1-0.3,0.1-0.5,0
			c-1-0.3-1.8-0.7-2.5-1.2c-3.2-2.2-4.8-5.2-4.6-9c0.1-2.4,0.9-4.4,2.5-6.2c1.6-1.8,3.6-2.9,6.2-3.4s5,0,7.3,1.4
			c2.3,1.4,3.9,3.5,4.6,6.1c0.7,2.6,0.4,5.1-0.9,7.5c-1.3,2.4-3.3,4-5.8,4.8C-563.6,67.1-563.9,66.9-563.9,66.4L-563.9,66.4z
			 M-572.7,62.3c0-0.1-0.1-0.2-0.2-0.2c0,0,0-0.1,0.1-0.1l0.2,0.2L-572.7,62.3L-572.7,62.3z M-572.2,62.8c-0.2-0.1-0.2-0.2-0.2-0.2
			l0.1-0.1l0.3,0.2L-572.2,62.8L-572.2,62.8z M-572,63.1l0.1-0.1c0.1,0.1,0.2,0.1,0.2,0.2l-0.1,0.2L-572,63.1L-572,63.1z
			 M-570.8,63.6l-0.2,0.2l-0.2-0.2l0.2-0.1C-571,63.5-570.9,63.6-570.8,63.6L-570.8,63.6z M-570.2,63.9
			C-570.3,63.9-570.3,63.9-570.2,63.9c-0.1-0.1-0.2-0.1-0.2-0.1c0.1-0.1,0.1-0.2,0.2-0.2c0.1,0.1,0.2,0.1,0.2,0.2L-570.2,63.9
			L-570.2,63.9z M-569.6,63.7l0.2-0.2c0.1,0.1,0.2,0.2,0.2,0.2c-0.1,0.2-0.3,0.2-0.3,0.1C-569.6,63.7-569.6,63.7-569.6,63.7
			L-569.6,63.7z"/>
	</g>
</g>
</svg>
