<?xml version="1.0" encoding="utf-8"?>
<!-- Generator: Adobe Illustrator 19.1.0, SVG Export Plug-In . SVG Version: 6.00 Build 0)  -->
<svg version="1.1" id="Layer_1" xmlns:sketch="http://www.bohemiancoding.com/sketch/ns"
	 xmlns="http://www.w3.org/2000/svg" xmlns:xlink="http://www.w3.org/1999/xlink" x="0px" y="0px" viewBox="-583 41 32 32"
	 style="enable-background:new -583 41 32 32;" xml:space="preserve">
<style type="text/css">
	.st0{clip-path:url(#SVGID_2_);fill:#169CEE;}
</style>
<title>google</title>
<desc>Created with Sketch.</desc>
<g>
	<defs>
		<path id="SVGID_1_" d="M-566.8,58.7h5.4c-0.2,1.2-1,2.2-2,2.9c0,0,0,0,0,0c-0.7,0.4-1.4,0.7-2.2,0.9c-0.8,0.1-1.6,0.2-2.4,0
			c-0.8-0.2-1.6-0.5-2.2-1c-1-0.7-1.7-1.7-2.2-2.8c0-0.1-0.1-0.2-0.1-0.3c0,0,0,0,0,0c0,0,0,0,0,0c-0.4-1.2-0.4-2.6,0-3.9
			c0.3-0.9,0.8-1.7,1.4-2.4c0.8-0.8,1.9-1.4,3-1.7c1-0.2,2-0.2,2.9,0.1c0.8,0.2,1.5,0.7,2.2,1.3c0.6-0.6,1.2-1.2,1.8-1.8
			c0.3-0.3,0.7-0.6,1-1c0,0,0,0,0,0c0,0,0,0,0,0c-0.9-0.9-2-1.6-3.2-2c-2.2-0.8-4.6-0.8-6.7-0.1c-2.4,0.8-4.5,2.7-5.7,5
			c-0.4,0.8-0.7,1.6-0.9,2.5c-0.4,2.2-0.1,4.5,0.9,6.5c0.7,1.3,1.6,2.4,2.7,3.3c1.1,0.8,2.3,1.5,3.6,1.8c1.7,0.4,3.4,0.4,5.1,0.1
			c1.5-0.3,3-1.1,4.1-2.1c1.2-1.1,2.1-2.6,2.5-4.1c0.4-1.3,0.5-2.7,0.4-4.1c0-0.4-0.1-0.9-0.2-1.3h-9.4V58.7z"/>
	</defs>
	<use xlink:href="#SVGID_1_"  style="overflow:visible;fill-rule:evenodd;clip-rule:evenodd;fill:#169CEE;"/>
	<clipPath id="SVGID_2_">
		<use xlink:href="#SVGID_1_"  style="overflow:visible;"/>
	</clipPath>
	<rect x="-577.8" y="45.5" class="st0" width="21.6" height="22"/>
</g>
</svg>
