<?xml version="1.0" encoding="utf-8"?>
<!-- Generator: Adobe Illustrator 19.1.0, SVG Export Plug-In . SVG Version: 6.00 Build 0)  -->
<svg version="1.1" id="Layer_1" xmlns="http://www.w3.org/2000/svg" xmlns:xlink="http://www.w3.org/1999/xlink" x="0px" y="0px"
	 viewBox="0 0 32 32" style="enable-background:new 0 0 32 32;" xml:space="preserve">
<style type="text/css">
	.st0{clip-path:url(#SVGID_2_);}
	.st1{clip-path:url(#SVGID_4_);fill:#F5A623;}
</style>
<g>
	<defs>
		<path id="SVGID_1_" d="M20.3,25c1.5,0,2.6-0.3,3.4-1c0.8-0.7,1.2-1.6,1.2-2.7c0-1.6-1-2.8-3.1-3.5c-0.8-0.3-1.4-0.6-1.7-0.8
			c-0.3-0.2-0.5-0.5-0.5-0.8c0-0.8,0.7-1.1,2-1.1c0.7,0,1.4,0.2,2.2,0.6l0.6-2.2c-0.9-0.4-2-0.6-3.2-0.6c-1.2,0-2.2,0.3-3,1
			c-0.8,0.7-1.2,1.5-1.2,2.6c0,1.6,1.1,2.7,3.3,3.5c0.7,0.3,1.2,0.5,1.5,0.8c0.3,0.2,0.4,0.5,0.4,0.9c0,0.9-0.6,1.3-1.7,1.3
			c-1.1,0-2.2-0.3-3.1-0.8l-0.5,2.2C17.7,24.7,18.9,25,20.3,25z M12.5,20.4c0,1.6-0.6,2.3-1.8,2.3c-0.6,0-1-0.1-1.4-0.2l-0.3,2.2
			C9.6,24.9,10.3,25,11,25c1.4,0,2.4-0.4,3.1-1.1c0.7-0.7,1.1-1.9,1.1-3.5v-7.5h-2.6V20.4z M29.6,8.9H2.4V8.6c0-0.2,0.1-0.4,0.2-0.6
			C2.8,7.9,3,7.8,3.2,7.8h1.2l1-2C5.6,5.4,6,5.1,6.6,5.1h5.2c0.6,0,0.9,0.3,1.2,0.8l0.9,1.9h15c0.2,0,0.4,0.1,0.6,0.2
			c0.2,0.2,0.3,0.4,0.2,0.6V8.9z M3.2,26.9c-0.2,0-0.4-0.1-0.6-0.2c-0.2-0.2-0.3-0.4-0.2-0.6L0.5,10.8h3.7v7.1l1.3-1.4l1.3,1.3v-7
			h24.7L29.6,26c0,0.2-0.1,0.4-0.2,0.6c-0.2,0.2-0.3,0.3-0.6,0.3H3.2z"/>
	</defs>
	<clipPath id="SVGID_2_">
		<use xlink:href="#SVGID_1_"  style="overflow:visible;"/>
	</clipPath>
	<g class="st0">
		<defs>
			<rect id="SVGID_3_" x="0.4" y="5" width="31.3" height="22"/>
		</defs>
		<clipPath id="SVGID_4_">
			<use xlink:href="#SVGID_3_"  style="overflow:visible;"/>
		</clipPath>
		<rect x="-0.4" y="4.3" class="st1" width="32.7" height="23.4"/>
	</g>
</g>
</svg>
