<?xml version="1.0" encoding="utf-8"?>
<!-- Generator: Adobe Illustrator 19.1.0, SVG Export Plug-In . SVG Version: 6.00 Build 0)  -->
<svg version="1.1" id="Layer_1" xmlns="http://www.w3.org/2000/svg" xmlns:xlink="http://www.w3.org/1999/xlink" x="0px" y="0px"
	 viewBox="0 0 32 32" style="enable-background:new 0 0 32 32;" xml:space="preserve">
<style type="text/css">
	.st0{fill:#922ADD;}
</style>
<g>
	<path class="st0" d="M0.5,19.3h2.9v2.9H0.5V19.3z"/>
	<path class="st0" d="M4.3,12.1H7l0.1,1.2c0.7-0.8,1.8-1.4,3.1-1.4c2.3,0,3.2,1.4,3.2,3.7v6.7h-2.8v-6.8c0-0.9-0.4-1.5-1.3-1.5
		c-0.9,0-1.6,0.4-2.2,1.2v7.2H4.3V12.1z"/>
	<path class="st0" d="M19.3,11.8c2.9,0,4.5,1.9,4.5,4.6c0,0.4,0,0.9-0.1,1.2H17c0.2,1.7,1,2.6,2.5,2.6c1,0,2-0.3,2.8-0.9l1.2,1.8
		c-1.3,0.9-2.7,1.3-4.2,1.3c-3,0-5.1-2-5.1-5.4C14.2,13.8,16.4,11.8,19.3,11.8z M17,16.1h4.1c0-1.3-0.5-2.3-1.8-2.3
		C18.2,13.8,17.3,14.6,17,16.1z"/>
	<path class="st0" d="M25.4,14h-1.6v-2h1.6V9.5h2.8v2.5h2.8v2h-2.8v5.1c0,0.8,0.3,1.1,0.9,1.1c0.5,0,1-0.2,1.4-0.5l1,1.7
		c-0.8,0.6-1.9,1-3,1c-2.1,0-3.2-1-3.2-3.3V14z"/>
</g>
</svg>
