<?xml version="1.0" encoding="utf-8"?>
<!-- Generator: Adobe Illustrator 19.1.0, SVG Export Plug-In . SVG Version: 6.00 Build 0)  -->
<svg version="1.1" id="Layer_1" xmlns="http://www.w3.org/2000/svg" xmlns:xlink="http://www.w3.org/1999/xlink" x="0px" y="0px"
	 viewBox="0 0 162 148" style="enable-background:new 0 0 162 148;" xml:space="preserve">
<style type="text/css">
	.st0{fill:#555574;}
	.st1{fill:#3E97D2;}
	.st2{fill:#EE3F61;}
	.st3{clip-path:url(#SVGID_2_);fill:#C4C3CE;}
	.st4{clip-path:url(#SVGID_4_);fill:#C4C3CE;}
	.st5{fill:#F2F3F2;}
	.st6{fill:#5FAADD;}
	.st7{fill:#CA3452;}
</style>
<path class="st0" d="M79.1,107.6h-1.8v-1.6c0-12.8,10.4-23.3,23.3-23.3h23.1v1.8h-23.1c-11.8,0-21.5,9.6-21.5,21.5V107.6z"/>
<path class="st0" d="M124.8,79v7.7c0,5-4.1,9.1-9.1,9.1c-5,0-9.1-4.1-9.1-9.1V79H124.8z"/>
<path class="st1" d="M124.8,79c0,5-4.1,9.1-9.1,9.1c-5,0-9.1-4.1-9.1-9.1c0-5,4.1-9.1,9.1-9.1C120.7,69.9,124.8,74,124.8,79"/>
<path class="st2" d="M115.6,46.8c7.1-0.1,13.2,5.6,13.5,12.8c0.2,4.3-1.7,8.3-4.8,10.8c-1.5,1.3-2.4,3.3-2.4,5.3V79
	c0,3.4-2.8,6.2-6.2,6.2s-6.2-2.8-6.2-6.2v-3.5c0-2-0.9-3.9-2.5-5.2c-2.9-2.4-4.7-6.1-4.7-10.2C102.3,52.8,108.3,46.9,115.6,46.8"/>
<g>
	<g>
		<defs>
			<rect id="SVGID_1_" x="60.7" y="111.3" width="34.2" height="34.9"/>
		</defs>
		<clipPath id="SVGID_2_">
			<use xlink:href="#SVGID_1_"  style="overflow:visible;"/>
		</clipPath>
		<path class="st3" d="M60.7,137.3v-17.2h10.7l14.7-8.8c4.9,0,8.8,3.9,8.8,8.8v17.3c0,4.9-3.9,8.8-8.8,8.8H69.5
			C64.6,146.1,60.7,142.2,60.7,137.3"/>
	</g>
</g>
<path class="st0" d="M86.6,136.2H69.1c-4.5,0-8.2-3.7-8.2-8.2v-15.4c0-4.5,3.7-8.2,8.2-8.2h17.5c4.5,0,8.2,3.7,8.2,8.2V128
	C94.8,132.5,91.1,136.2,86.6,136.2"/>
<path class="st1" d="M86.6,126.8H69.1c-4.5,0-8.2-3.7-8.2-8.2v-15.4c0-4.5,3.7-8.2,8.2-8.2h17.5c4.5,0,8.2,3.7,8.2,8.2v15.4
	C94.8,123.1,91.1,126.8,86.6,126.8"/>
<g>
	<g>
		<defs>
			<rect id="SVGID_3_" x="72.1" y="104.9" width="11.7" height="17.1"/>
		</defs>
		<clipPath id="SVGID_4_">
			<use xlink:href="#SVGID_3_"  style="overflow:visible;"/>
		</clipPath>
		<path class="st4" d="M83.8,104.9l0,11.3c0,3.2-2.6,5.8-5.9,5.8c-3.2,0-5.8-2.6-5.8-5.9l0-8.9L83.8,104.9z"/>
	</g>
</g>
<path class="st0" d="M72.2,107.5v3.4c0,3.2,2.6,5.8,5.8,5.8c3.2,0,5.8-2.6,5.8-5.8v-3.4H72.2z"/>
<path class="st5" d="M83.8,107.5c0,3.2-2.6,5.8-5.8,5.8c-3.2,0-5.8-2.6-5.8-5.8c0-3.2,2.6-5.8,5.8-5.8
	C81.2,101.7,83.8,104.3,83.8,107.5"/>
<path class="st1" d="M98.4,63.7c0,0-2.9-7.4,0.3-16.9c0,0,7.6-6.3,12.8-8l-10.7,1.2c0,0-3,11.3-13.3,13.1c0,0,1.9-7.5,4.3-9.9
	c0,0-2.2,0.9-3.9,0c0,0,5.2-11.8,9.5-14.9l13.8-3.6l-7.8-1.8c0,0-9.6,8.2-13.8,3.4c0,0,6.6-7.3,12.3-8.9c0,0,19.1,4.1,34.5-0.5
	c7.6-2.3,12.2-8.1,12.2-8.1l6.6,18.8c0,0-10.7,23.7-25.1,36.7c0,0-4.1-6.6,4.7-17.9c3.8-4.8-23.2-3.3-30.8,2.7
	C104.1,49.2,103.2,61.9,98.4,63.7"/>
<path class="st6" d="M136.5,17c-15.4,4.6-34.6,0.5-34.6,0.5c-5.7,1.6-12.3,8.9-12.3,8.9c4.3,4.8,13.8-3.4,13.8-3.4l7.8,1.8
	l-13.8,3.6c-0.6,0.4-1.2,1-1.8,1.7h0c0,0,0,0,0,0c0,0,0,0-0.1,0.1c-0.1,0.1-0.2,0.3-0.3,0.4c0,0,0,0-0.1,0.1
	c-0.1,0.1-0.2,0.3-0.3,0.4c0,0,0,0,0,0.1c-0.1,0.1-0.2,0.3-0.3,0.4c0,0,0,0,0,0l0,0C91.1,36.2,88,43.3,88,43.3c1.7,0.8,3.9,0,3.9,0
	c-2.4,2.4-4.3,9.9-4.3,9.9l11.1-17.4c0.4-0.6,1-1,1.7-1l29.9-1.6c4.1,0.2,8-1.3,11.1-4l10.9-10l-4.6-9.1
	C145.8,11.9,141.9,15.3,136.5,17"/>
<polygon class="st0" points="155.1,34.4 136.4,14 146.3,1.9 162.1,25.5 "/>
<path class="st7" d="M57.3,93.4c-0.2,0.2-6.3,5.5-6.3,5.5s-5-3.2-7.9-8.6C39.2,82.7,57.3,93.4,57.3,93.4"/>
<path class="st2" d="M18.5,50c0,0,6.8,9.8,19.8,9c11.4-0.6,21.1,5.9,24.4,8.5c0.8,0.6,1.1,1.6,0.9,2.5l-0.8,3.5l1.3,2.2
	c0.5,0.8,0.5,1.8,0,2.6l-1.8,2.9l1.4,2.9c0.4,0.9,0.3,1.9-0.3,2.6l-2.5,3.1l10.3,6.5l11.4,9.7c0,0-3.5,3.2-12.1-1.9
	c0,0-14.3-11.6-35.9-16.2c0,0,9.5,13,8.1,19.2c0,0-23-16.5-23.5-25.4c-0.5-8.9-9.9-13.8-9.9-13.8L18.5,50z"/>
<polygon class="st0" points="9.4,73.8 25.3,51.2 14,40.4 -0.2,65.9 "/>
<path class="st2" d="M78.2,62.9c0.2,1.5,1.6,2.6,3.1,2.5c1.5-0.2,2.6-1.6,2.5-3.1c-0.2-1.5-1.6-2.6-3.1-2.5
	C79.2,60,78.1,61.4,78.2,62.9"/>
<path class="st2" d="M93.5,73.1c0.1,1.3,1.3,2.2,2.6,2c1.3-0.1,2.2-1.3,2-2.6c-0.1-1.3-1.3-2.2-2.6-2C94.2,70.7,93.3,71.9,93.5,73.1
	"/>
<path class="st2" d="M83.9,79.3c0.1,1.3,1.3,2.2,2.6,2c1.3-0.1,2.2-1.3,2-2.6c-0.1-1.3-1.3-2.2-2.6-2C84.7,76.8,83.8,78,83.9,79.3"
	/>
<path class="st2" d="M144.7,58c0.1,0.9,0.9,1.6,1.8,1.5c0.9-0.1,1.6-0.9,1.5-1.8c-0.1-0.9-0.9-1.6-1.8-1.5
	C145.3,56.3,144.6,57.1,144.7,58"/>
<path class="st2" d="M144.7,85.4c0.1,0.9,0.9,1.6,1.8,1.5c0.9-0.1,1.6-0.9,1.5-1.8c-0.1-0.9-0.9-1.6-1.8-1.5
	C145.3,83.7,144.6,84.5,144.7,85.4"/>
<path class="st2" d="M81,36.2c0.1,0.9,0.9,1.6,1.8,1.5c0.9-0.1,1.6-0.9,1.5-1.8c-0.1-0.9-0.9-1.6-1.8-1.5
	C81.6,34.5,80.9,35.3,81,36.2"/>
<path class="st2" d="M129.1,81.6c0.1,1.3,1.3,2.2,2.6,2c1.3-0.1,2.2-1.3,2-2.6c-0.1-1.3-1.3-2.2-2.6-2
	C129.8,79.2,128.9,80.3,129.1,81.6"/>
<path class="st2" d="M133.5,70c0.2,1.8,1.9,3.2,3.7,3c1.8-0.2,3.2-1.9,3-3.7c-0.2-1.8-1.9-3.2-3.7-3C134.6,66.5,133.3,68.2,133.5,70
	"/>
</svg>
