<?xml version="1.0" encoding="utf-8"?>
<!-- Generator: Adobe Illustrator 19.1.0, SVG Export Plug-In . SVG Version: 6.00 Build 0)  -->
<svg version="1.1" id="Layer_1" xmlns="http://www.w3.org/2000/svg" xmlns:xlink="http://www.w3.org/1999/xlink" x="0px" y="0px"
	 viewBox="0 0 32 32" style="enable-background:new 0 0 32 32;" xml:space="preserve">
<style type="text/css">
	.st0{clip-path:url(#SVGID_2_);}
	.st1{clip-path:url(#SVGID_4_);fill:#9CAFBA;}
</style>
<g>
	<defs>
		<path id="SVGID_1_" d="M20.4,3h0.2c0.1,1.5-0.4,3-1.4,4.3c-1.1,1.3-2.3,1.9-3.7,1.7c-0.1-1.5,0.4-2.8,1.4-4
			C17.7,3.8,18.9,3.2,20.4,3z M20.2,28.9c-0.5,0-1.2-0.2-2.1-0.5c-0.9-0.3-1.6-0.5-2.1-0.5s-1.3,0.2-2.2,0.6c-1,0.4-1.8,0.5-2.6,0.4
			c-0.8-0.1-1.6-0.7-2.5-1.8c-2.2-2.7-3.5-5.9-3.8-9.4v-1.2c0-1.4,0.4-2.6,1-3.7c0.6-1.1,1.5-2,2.5-2.7c1.1-0.7,2.3-0.9,3.5-0.7
			c0.5,0.1,1.2,0.3,2.1,0.6c0.9,0.3,1.4,0.5,1.5,0.5c0.1,0,0.4-0.1,0.8-0.2c0.4-0.1,0.8-0.3,1-0.4c0.3-0.1,0.4-0.1,0.5-0.2
			c0.8-0.3,1.5-0.5,2.2-0.5c2.4,0,4.1,0.9,5.2,2.6c-2,1.3-3,3.1-2.8,5.3c0.2,2.3,1.4,3.9,3.5,4.8v0.1c-0.5,1.5-1.1,2.7-1.8,3.6
			c-0.7,1-1.1,1.6-1.3,1.8c-0.2,0.2-0.5,0.5-1.1,0.9C21.3,28.8,20.8,28.9,20.2,28.9z"/>
	</defs>
	<use xlink:href="#SVGID_1_"  style="overflow:visible;fill-rule:evenodd;clip-rule:evenodd;fill:#9CAFBA;"/>
	<clipPath id="SVGID_2_">
		<use xlink:href="#SVGID_1_"  style="overflow:visible;"/>
	</clipPath>
	<g class="st0">
		<defs>
			<rect id="SVGID_3_" x="4.9" y="2.9" width="21.3" height="26.3"/>
		</defs>
		<use xlink:href="#SVGID_3_"  style="overflow:visible;fill:#9CAFBA;"/>
		<clipPath id="SVGID_4_">
			<use xlink:href="#SVGID_3_"  style="overflow:visible;"/>
		</clipPath>
		<rect x="4" y="2" class="st1" width="22.9" height="27.8"/>
	</g>
</g>
</svg>
