<?xml version="1.0" encoding="utf-8"?>
<!-- Generator: Adobe Illustrator 19.1.0, SVG Export Plug-In . SVG Version: 6.00 Build 0)  -->
<svg version="1.1" id="Layer_1" xmlns="http://www.w3.org/2000/svg" xmlns:xlink="http://www.w3.org/1999/xlink" x="0px" y="0px"
	 viewBox="0 0 32 32" style="enable-background:new 0 0 32 32;" xml:space="preserve">
<style type="text/css">
	.st0{enable-background:new    ;}
	.st1{clip-path:url(#SVGID_2_);}
	.st2{clip-path:url(#SVGID_4_);}
	.st3{clip-path:url(#SVGID_6_);fill:#0E69A1;}
</style>
<g class="st0">
	<g>
		<defs>
			<rect id="SVGID_1_" x="3.2" y="2" width="25.6" height="28"/>
		</defs>
		<clipPath id="SVGID_2_">
			<use xlink:href="#SVGID_1_"  style="overflow:visible;"/>
		</clipPath>
		<g class="st1">
			<defs>
				<path id="SVGID_3_" d="M16.3,13.8c0-0.4,0.2-0.6,0.5-0.6c0.2,0,0.3,0,0.4,0.2c0.1,0.1,0.2,0.3,0.2,0.5c0,0.4-0.2,0.6-0.6,0.6
					C16.5,14.4,16.3,14.2,16.3,13.8z M10.9,5.4C9.1,5.4,7.6,6,6.3,7.3C5.6,7.1,5,7,4.6,7c1.3-1.5,2.8-2.7,4.6-3.5
					C11.1,2.6,13,2.2,15,2.2c3.8,0,7,1.3,9.7,4c2.7,2.7,4,5.9,4,9.8c0,3.8-1.3,7.1-4,9.8c-2.7,2.7-5.9,4.1-9.7,4.1
					c-2.2,0-4.2-0.5-6.2-1.5c0.8,0,1.7,0,2.7-0.2c1.3-0.3,1.6-0.9,0.8-1.9c-0.8-1-1.1-2.1-0.8-3.2c0.2-1.1,0.9-1.9,1.9-2.5
					c0.9-0.6,1.2-0.5,0.9,0.1c-0.1,0.3-0.4,0.7-0.7,1.2c-1.3,1.9-1.4,3.4-0.3,4.6c0.8,0.9,1.9,1.2,3.1,0.8c0.5-0.1,1-0.4,1.5-0.8
					c0.4-0.4,0.6-0.8,0.4-1.2c-0.1-0.2-0.4-0.3-0.9-0.1c-0.4,0.1-0.9,0.3-1.3,0.5c-0.4,0.2-0.8,0-1.1-0.3c-0.4-0.5-0.3-1.1,0.4-1.8
					c0.7-0.7,1.4-1.5,2.1-2.4c0.8-0.9,1.3-1.8,1.6-2.5c0.4-0.7,0.7-1.4,0.9-2.3c0.3-0.8,0.4-1.6,0.3-2.5c-0.1-0.8-0.3-1.5-0.7-2.1
					c-0.8-1-1.4-1.6-1.9-1.7c-0.2-0.1-0.5-0.1-0.8-0.1c-0.4-1.4-1.1-2.5-2.3-3.4C13.7,5.8,12.4,5.4,10.9,5.4z M3.6,23.2
					c0.5,0,1.1-0.1,1.8-0.3c0.7-0.2,1.1,0,1.3,0.5c0.1,0.2,0.1,0.6,0.1,1.1c0,0.6,0,1.1-0.1,1.5c-0.1,0.4-0.1,0.7-0.1,0.9
					c-1.3-1-2.4-2.3-3.3-3.8H3.6z"/>
			</defs>
			<clipPath id="SVGID_4_">
				<use xlink:href="#SVGID_3_"  style="overflow:visible;"/>
			</clipPath>
			<g class="st2">
				<defs>
					<rect id="SVGID_5_" x="3.2" y="2" width="25.6" height="28"/>
				</defs>
				<clipPath id="SVGID_6_">
					<use xlink:href="#SVGID_5_"  style="overflow:visible;"/>
				</clipPath>
				<rect x="2.3" y="1.2" class="st3" width="27.4" height="29.7"/>
			</g>
		</g>
	</g>
</g>
</svg>
