<?xml version="1.0" encoding="utf-8"?>
<!-- Generator: Adobe Illustrator 19.1.0, SVG Export Plug-In . SVG Version: 6.00 Build 0)  -->
<svg version="1.1" id="Layer_1" xmlns:sketch="http://www.bohemiancoding.com/sketch/ns"
	 xmlns="http://www.w3.org/2000/svg" xmlns:xlink="http://www.w3.org/1999/xlink" x="0px" y="0px" viewBox="-583 41 32 32"
	 style="enable-background:new -583 41 32 32;" xml:space="preserve">
<style type="text/css">
	.st0{fill:#169CEE;}
</style>
<title>twitter</title>
<desc>Created with Sketch.</desc>
<g id="Page-1" sketch:type="MSPage">
	<g id="twitter" sketch:type="MSArtboardGroup">
		<path sketch:type="MSShapeGroup" class="st0" d="M-554.9,47.8c0,0.2-0.2,0.5-0.6,1c-0.3,0.5-0.8,0.9-1.3,1.2
			c1.1,0,2.1-0.2,2.8-0.6c-1.1,1.3-1.9,2.1-2.4,2.3c-0.1,0-0.2,0.2-0.2,0.6c-0.1,1.4-0.2,2.5-0.4,3.4c-0.4,2-1.4,4-3,5.9
			c-0.3,0.4-0.7,0.9-1.4,1.4c-0.7,0.6-1.3,1.1-2,1.5c-0.7,0.4-1.5,0.8-2.6,1.3c-1.1,0.4-2.2,0.7-3.3,0.9c-0.9,0.1-1.9,0.1-2.8,0.2
			c-1,0.1-2.1-0.1-3.3-0.5c-1.3-0.4-2.5-1-3.6-1.8c0.3,0.1,0.8,0.1,1.4,0c2.2-0.2,4.2-0.9,6-2.2c-0.3,0-0.7-0.1-1.2-0.3
			c-0.6-0.2-1-0.4-1.4-0.6c-0.4-0.2-0.8-0.6-1.2-1c-0.4-0.4-0.7-1-0.8-1.5c1.2,0,1.9,0,2.1-0.1c-0.1,0-0.2-0.1-0.4-0.2
			c-0.2-0.1-0.5-0.3-1-0.6c-0.5-0.3-0.9-0.6-1.2-1c-0.3-0.3-0.7-0.8-1-1.4c-0.3-0.6-0.4-1.3-0.4-2l0.4,0.1c0.7,0.3,1.3,0.4,1.8,0.4
			c-0.3-0.2-0.7-0.6-1-1.1c-0.3-0.5-0.6-1-0.8-1.4c-0.2-0.5-0.2-1.1-0.2-1.8c0-0.7,0.2-1.5,0.6-2.3c0.4,0.5,0.9,1.1,1.7,1.7
			c0.7,0.6,1.5,1.1,2.2,1.6c0.7,0.5,1.7,0.9,2.9,1.3c1.2,0.4,2.5,0.6,3.7,0.6c-0.1-0.3-0.1-0.8,0-1.5c0.1-0.6,0.2-1.2,0.4-1.7
			c0.2-0.5,0.5-1,1-1.4c0.8-0.8,1.7-1.2,2.9-1.4c1.9-0.2,3.4,0.2,4.5,1.5c1.7-0.3,2.8-0.7,3.2-1.2
			C-554.8,47.4-554.9,47.6-554.9,47.8z"/>
	</g>
</g>
</svg>
